<svg width="512" height="512" viewBox="0 0 512 512" fill="none" xmlns="http://www.w3.org/2000/svg">
<path d="M256 512C114.836 512 0 397.164 0 256C0 114.836 114.836 0 256 0C397.164 0 512 114.836 512 256C512 397.164 397.164 512 256 512ZM256 32C132.48 32 32 132.48 32 256C32 379.52 132.48 480 256 480C379.52 480 480 379.52 480 256C480 132.48 379.52 32 256 32Z" fill="white"/>
<path d="M346.668 181.332H165.332C156.5 181.332 149.332 174.164 149.332 165.332C149.332 156.5 156.5 149.332 165.332 149.332H346.668C355.5 149.332 362.668 156.5 362.668 165.332C362.668 174.164 355.5 181.332 346.668 181.332Z" fill="white"/>
<path d="M346.668 272H165.332C156.5 272 149.332 264.832 149.332 256C149.332 247.168 156.5 240 165.332 240H346.668C355.5 240 362.668 247.168 362.668 256C362.668 264.832 355.5 272 346.668 272Z" fill="white"/>
<path d="M346.668 362.668H165.332C156.5 362.668 149.332 355.5 149.332 346.668C149.332 337.836 156.5 330.668 165.332 330.668H346.668C355.5 330.668 362.668 337.836 362.668 346.668C362.668 355.5 355.5 362.668 346.668 362.668Z" fill="white"/>
</svg>
