<svg width="512" height="512" viewBox="0 0 512 512" fill="none" xmlns="http://www.w3.org/2000/svg">
<g clip-path="url(#clip0)">
<path d="M243.577 506.461C236.512 498.593 70.573 312.315 70.573 185.426C70.574 83.182 153.756 0 256.001 0C358.246 0 441.427 83.182 441.427 185.426C441.427 312.314 275.488 498.593 268.423 506.461C261.786 513.854 250.199 513.839 243.577 506.461Z" fill="#50989E"/>
<path d="M441.426 185.426C441.426 83.182 358.244 0 256.001 0V512C260.553 512 265.107 510.157 268.424 506.461C275.487 498.594 441.426 312.315 441.426 185.426Z" fill="#408086"/>
<path d="M256.001 278.719C204.559 278.719 162.71 236.868 162.71 185.426C162.71 133.984 204.561 92.1331 256.001 92.1331C307.441 92.1331 349.292 133.984 349.292 185.426C349.292 236.868 307.441 278.719 256.001 278.719Z" fill="#EFEFEF"/>
<path d="M256.001 92.134V278.719C307.443 278.719 349.292 236.868 349.292 185.426C349.292 133.984 307.441 92.134 256.001 92.134Z" fill="#C5D8DF"/>
</g>
<defs>
<clipPath id="clip0">
<rect width="512" height="512" fill="white"/>
</clipPath>
</defs>
</svg>
