<?xml version="1.0" encoding="iso-8859-1"?>
<!-- Generator: Adobe Illustrator 19.0.0, SVG Export Plug-In . SVG Version: 6.00 Build 0)  -->
<svg version="1.1" id="Capa_1" xmlns="http://www.w3.org/2000/svg" xmlns:xlink="http://www.w3.org/1999/xlink" x="0px" y="0px"
	 viewBox="0 0 512 512" style="enable-background:new 0 0 512 512;" xml:space="preserve">
<polygon style="fill:#C7A87E;" points="472.291,482.326 252.228,482.326 252.228,164.857 362.26,84.857 472.291,164.857 "/>
<polygon style="fill:#FCD0AC;" points="258.312,160.434 169.5,160.434 40.236,160.434 40.236,482.326 252.228,482.326 
	252.228,164.857 "/>
<polygon style="fill:#EE4A4D;" points="362.26,84.857 466.207,160.434 502,160.434 448.662,29.674 63.338,29.674 10,160.434 
	189.5,160.434 258.312,160.434 "/>
<rect x="306.65" y="336.82" style="fill:#947C6B;" width="111.22" height="145.5"/>
<rect x="81" y="191.43" style="fill:#7AEAE7;" width="125" height="70.28"/>
<path d="M206,271.712H81c-5.523,0-10-4.477-10-10v-70.284c0-5.522,4.477-10,10-10h125c5.523,0,10,4.478,10,10v70.284
	C216,267.234,211.523,271.712,206,271.712z M91,251.712h105v-50.284H91V251.712z"/>
<rect x="81" y="336.82" style="fill:#7AEAE7;" width="125" height="70.28"/>
<path d="M206,417.106H81c-5.523,0-10-4.477-10-10v-70.285c0-5.522,4.477-10,10-10h125c5.523,0,10,4.478,10,10v70.285
	C216,412.629,211.523,417.106,206,417.106z M91,397.106h105v-50.285H91V397.106z"/>
<path style="fill:#69B0CC;" d="M417.87,261.712H306.649v-60.389c0-30.713,24.898-55.611,55.611-55.611l0,0
	c30.713,0,55.611,24.898,55.611,55.611L417.87,261.712L417.87,261.712z"/>
<path d="M385.667,404.16c-5.523,0-10-4.478-10-10v-12.834c0-5.523,4.477-10,10-10s10,4.477,10,10v12.834
	C395.667,399.683,391.189,404.16,385.667,404.16z"/>
<path d="M423.18,307.93c-2.64,0-5.21-1.07-7.08-2.93c-0.46-0.46-0.87-0.971-1.24-1.521c-0.36-0.54-0.67-1.12-0.92-1.729
	c-0.25-0.601-0.44-1.23-0.57-1.87c-0.13-0.64-0.19-1.3-0.19-1.95c0-0.65,0.06-1.31,0.19-1.96c0.13-0.63,0.32-1.26,0.57-1.87
	c0.25-0.6,0.56-1.18,0.92-1.72c0.37-0.55,0.78-1.061,1.24-1.52c2.33-2.33,5.78-3.39,9.03-2.739c0.64,0.13,1.27,0.319,1.87,0.569
	s1.18,0.561,1.73,0.92c0.54,0.37,1.06,0.79,1.52,1.25s0.87,0.971,1.24,1.52c0.36,0.54,0.67,1.12,0.92,1.72
	c0.25,0.61,0.44,1.24,0.57,1.87c0.13,0.65,0.2,1.31,0.2,1.96s-0.07,1.311-0.2,1.95c-0.13,0.64-0.32,1.27-0.57,1.87
	c-0.25,0.609-0.56,1.189-0.92,1.729c-0.37,0.55-0.78,1.061-1.24,1.521C428.38,306.859,425.81,307.93,423.18,307.93z"/>
<path d="M472.291,492.326c5.523,0,10-4.478,10-10V170.434H502c3.33,0,6.442-1.658,8.3-4.422c1.857-2.764,2.217-6.271,0.96-9.355
	l-53.338-130.76c-1.535-3.763-5.195-6.223-9.259-6.223H63.338c-4.065,0-7.724,2.46-9.259,6.223L0.741,156.656
	c-1.258,3.084-0.898,6.592,0.96,9.355c1.858,2.764,4.97,4.422,8.3,4.422h20.236v311.893c0,5.522,4.477,10,10,10H472.291
	 M242.228,287.929H50.236V170.434h191.992V287.929z M242.228,435.999H50.236v-128.07h191.992V435.999z M50.236,455.999h191.992
	v16.327H50.236V455.999z M316.649,472.326V346.821h91.221v125.505L316.649,472.326L316.649,472.326z M462.291,472.326H427.87
	V336.821c0-5.522-4.477-10-10-10H306.649c-5.523,0-10,4.478-10,10v135.505h-34.421V307.929h127.947c5.523,0,10-4.477,10-10
	c0-5.522-4.477-10-10-10H262.228V169.95l1.965-1.429c0.001-0.001-1.967,1.43-1.965,1.429L362.26,97.221l100.031,72.729
	L462.291,472.326L462.291,472.326z M469.458,150.434L368.141,76.769l0,0c-3.506-2.55-8.255-2.549-11.762,0l0,0l-101.317,73.664
	H24.879l0,0l45.18-110.76h371.883l45.18,110.76h-17.664V150.434z"/>
<path d="M296.649,201.323v60.389c0,5.523,4.477,10,10,10H417.87c5.523,0,10-4.477,10-10v-60.389
	c0-36.178-29.433-65.611-65.611-65.611S296.649,165.145,296.649,201.323z M316.649,251.712v-10.198h91.221v10.198H316.649z
	 M407.87,201.323v20.191h-91.221v-20.191c0-25.15,20.461-45.611,45.611-45.611C387.409,155.712,407.87,176.173,407.87,201.323z"/>
<g>
</g>
<g>
</g>
<g>
</g>
<g>
</g>
<g>
</g>
<g>
</g>
<g>
</g>
<g>
</g>
<g>
</g>
<g>
</g>
<g>
</g>
<g>
</g>
<g>
</g>
<g>
</g>
<g>
</g>
</svg>
