<svg width="1013" height="236" viewBox="0 0 1013 236" fill="none" xmlns="http://www.w3.org/2000/svg">
<g clip-path="url(#clip0)">
<g opacity="0.7">
<path opacity="0.7" d="M936.562 239.294H831.98L832.705 170.104L862.614 163.111H904.9L935.838 168.064L936.562 239.294Z" fill="url(#paint0_linear)"/>
</g>
<path d="M935.114 238.421H833.429L834.153 170.976L862.71 163.983H905.414L934.39 168.936L935.114 238.421Z" fill="#EEEEEE"/>
<g opacity="0.7">
<path opacity="0.7" d="M872.41 138.347H864.779V159.617H872.41V138.347Z" fill="url(#paint1_linear)"/>
</g>
<g opacity="0.7">
<path opacity="0.7" d="M864.775 186.682V163.692H831.629L826 186.682V189.038H864.985V186.682H864.775Z" fill="url(#paint2_linear)"/>
</g>
<path d="M864.779 186.707H826.412L831.981 163.983H864.779V186.707Z" fill="#C6F1E7"/>
<path opacity="0.1" d="M864.779 186.707H826.412L831.981 163.983H864.779V186.707Z" fill="black"/>
<path d="M864.985 186.707H826.412V189.038H864.985V186.707Z" fill="#C6F1E7"/>
<g opacity="0.7">
<path opacity="0.7" d="M936.175 163.402H902.94V186.652H902.731V189.038H941.822V186.652L936.175 163.402Z" fill="url(#paint3_linear)"/>
</g>
<path d="M902.937 186.707H941.304L935.735 163.983H902.937V186.707Z" fill="#C6F1E7"/>
<path opacity="0.1" d="M902.937 186.707H941.304L935.735 163.983H902.937V186.707Z" fill="black"/>
<path d="M902.731 189.038H941.304V186.707H902.731V189.038Z" fill="#C6F1E7"/>
<path opacity="0.5" d="M857.56 198.217H836.726V216.57H857.56V198.217Z" fill="#B3D9D0"/>
<path opacity="0.1" d="M858.795 215.261H835.487V218.465H858.795V215.261Z" fill="black"/>
<path d="M858.795 214.97H835.487V218.174H858.795V214.97Z" fill="#535461"/>
<g opacity="0.1">
<path opacity="0.1" d="M857.56 198.217H836.726V205.501H857.56V198.217Z" fill="black"/>
</g>
<path opacity="0.5" d="M931.199 198.217H910.365V216.57H931.199V198.217Z" fill="#B3D9D0"/>
<path opacity="0.1" d="M932.435 215.261H909.127V218.465H932.435V215.261Z" fill="black"/>
<path d="M932.435 214.97H909.127V218.174H932.435V214.97Z" fill="#535461"/>
<g opacity="0.1">
<path opacity="0.1" d="M931.199 198.217H910.365V205.501H931.199V198.217Z" fill="black"/>
</g>
<g opacity="0.7">
<path opacity="0.7" d="M909.368 165.347L883.924 137.554L859.299 165.326L857.368 161.913L883.895 132L911.26 161.893L909.368 165.347Z" fill="url(#paint4_linear)"/>
</g>
<path opacity="0.1" d="M861.375 189.038H833.94V189.474H861.375V189.038Z" fill="black"/>
<path opacity="0.1" d="M934.603 189.038H906.859V189.474H934.603V189.038Z" fill="black"/>
<path d="M872.204 138.637H864.985V159.612H872.204V138.637Z" fill="#535461"/>
<g opacity="0.7">
<path opacity="0.7" d="M906.859 238.421H860.655V158.594L883.956 157.867L906.859 158.594V238.421Z" fill="url(#paint5_linear)"/>
</g>
<path d="M906.341 238.421H861.375V158.594L883.86 136.015L906.341 158.594V238.421Z" fill="white"/>
<path d="M889.528 211.617H878.185V238.421H889.528V211.617Z" fill="#535461"/>
<path opacity="0.1" d="M895.512 187.584H872.204V190.788H895.512V187.584Z" fill="black"/>
<path opacity="0.5" d="M894.277 170.54H873.443V188.893H894.277V170.54Z" fill="#B3D9D0"/>
<path d="M895.512 187.294H872.204V190.497H895.512V187.294Z" fill="#535461"/>
<g opacity="0.1">
<path opacity="0.1" d="M894.277 170.54H873.443V177.824H894.277V170.54Z" fill="black"/>
</g>
<path d="M909.368 165.637L883.924 137.845L859.299 165.617L857.368 162.203L883.895 132.291L911.26 162.183L909.368 165.637Z" fill="#C6F1E7"/>
<path d="M887.881 226.185C888.336 226.185 888.704 225.664 888.704 225.022C888.704 224.379 888.336 223.859 887.881 223.859C887.426 223.859 887.058 224.379 887.058 225.022C887.058 225.664 887.426 226.185 887.881 226.185Z" fill="#E0E0E0"/>
<g opacity="0.7">
<path opacity="0.7" d="M801.461 238.19H701.707L702.395 141.057L730.923 131.24H771.261L800.773 138.195L801.461 238.19Z" fill="url(#paint6_linear)"/>
</g>
<path d="M800.082 236.965H703.086L703.777 142.282L731.018 132.47H771.751L799.391 139.419L800.082 236.965Z" fill="#EEEEEE"/>
<g opacity="0.7">
<path opacity="0.7" d="M740.268 89.3844H732.989V108.132H740.268V89.3844Z" fill="url(#paint7_linear)"/>
</g>
<g opacity="0.7">
<path opacity="0.7" d="M732.989 147.136V126.874H701.37L696 147.136V149.215H733.186V147.136H732.989Z" fill="url(#paint8_linear)"/>
</g>
<path d="M732.989 147.163H696.395L701.707 127.132H732.989V147.163Z" fill="#B3D9D0"/>
<path opacity="0.1" d="M732.989 147.163H696.395L701.707 127.132H732.989V147.163Z" fill="black"/>
<path d="M733.19 147.163H696.395V149.22H733.19V147.163Z" fill="#B3D9D0"/>
<g opacity="0.7">
<path opacity="0.7" d="M801.094 127.132H769.393V147.625H769.192V149.73H806.477V147.625L801.094 127.132Z" fill="url(#paint9_linear)"/>
</g>
<path d="M769.389 147.674H805.987L800.675 127.648H769.389V147.674Z" fill="#B3D9D0"/>
<path opacity="0.1" d="M769.389 147.674H805.987L800.675 127.648H769.389V147.674Z" fill="black"/>
<path d="M769.192 149.73H805.987V147.674H769.192V149.73Z" fill="#B3D9D0"/>
<path opacity="0.5" d="M726.1 201.983H706.23V218.158H726.1V201.983Z" fill="#A1C4BC"/>
<path opacity="0.1" d="M727.286 217.004H705.053V219.829H727.286V217.004Z" fill="black"/>
<path d="M727.286 216.751H705.053V219.576H727.286V216.751Z" fill="#535461"/>
<g opacity="0.1">
<path opacity="0.1" d="M726.1 201.983H706.23V208.401H726.1V201.983Z" fill="black"/>
</g>
<path opacity="0.5" d="M796.346 201.983H776.475V218.158H796.346V201.983Z" fill="#A1C4BC"/>
<path opacity="0.1" d="M797.527 217.004H775.294V219.829H797.527V217.004Z" fill="black"/>
<path d="M797.527 216.751H775.294V219.576H797.527V216.751Z" fill="#535461"/>
<g opacity="0.1">
<path opacity="0.1" d="M796.346 201.983H776.475V208.401H796.346V201.983Z" fill="black"/>
</g>
<path opacity="0.5" d="M796.346 164.235H776.475V180.411H796.346V164.235Z" fill="#A1C4BC"/>
<path opacity="0.1" d="M797.527 179.262H775.294V182.086H797.527V179.262Z" fill="black"/>
<path d="M797.527 179.004H775.294V181.829H797.527V179.004Z" fill="#535461"/>
<g opacity="0.1">
<path opacity="0.1" d="M796.346 164.235H776.475V170.653H796.346V164.235Z" fill="black"/>
</g>
<path opacity="0.5" d="M726.693 164.235H706.822V180.411H726.693V164.235Z" fill="#B3D9D0"/>
<path opacity="0.1" d="M727.874 179.262H705.641V182.086H727.874V179.262Z" fill="black"/>
<path d="M727.874 179.004H705.641V181.829H727.874V179.004Z" fill="#535461"/>
<g opacity="0.1">
<path opacity="0.1" d="M726.693 164.235H706.822V170.653H726.693V164.235Z" fill="black"/>
</g>
<g opacity="0.7">
<path opacity="0.7" d="M775.52 116.392L751.255 91.8977L727.763 116.375L725.919 113.368L751.226 87L777.327 113.347L775.52 116.392Z" fill="url(#paint10_linear)"/>
</g>
<path opacity="0.1" d="M729.742 149.215H703.576V149.601H729.742V149.215Z" fill="black"/>
<path opacity="0.1" d="M799.593 149.73H773.13V150.117H799.593V149.73Z" fill="black"/>
<path d="M740.075 89.6422H733.186V108.132H740.075V89.6422Z" fill="#535461"/>
<g opacity="0.7">
<path opacity="0.7" d="M773.228 237.422H729.154V113.116L751.382 111.983L773.228 113.116V237.422Z" fill="url(#paint11_linear)"/>
</g>
<path d="M772.636 237.422H729.742V112.622L751.189 91.5701L773.031 113.395L772.636 237.422Z" fill="white"/>
<path d="M756.6 213.798H745.778V237.422H756.6V213.798Z" fill="#535461"/>
<path opacity="0.1" d="M762.307 192.612H740.075V195.437H762.307V192.612Z" fill="black"/>
<path opacity="0.5" d="M761.126 177.591H741.256V193.767H761.126V177.591Z" fill="#A1C4BC"/>
<path d="M762.307 192.354H740.075V195.179H762.307V192.354Z" fill="#535461"/>
<g opacity="0.1">
<path opacity="0.1" d="M761.126 177.591H741.256V184.009H761.126V177.591Z" fill="black"/>
</g>
<path opacity="0.5" d="M761.126 145.88H741.256V162.055H761.126V145.88Z" fill="#A1C4BC"/>
<path d="M762.307 160.643H740.075V163.467H762.307V160.643Z" fill="#535461"/>
<g opacity="0.1">
<path opacity="0.1" d="M761.126 145.88H741.256V152.297H761.126V145.88Z" fill="black"/>
</g>
<path opacity="0.5" d="M761.126 114.163H741.256V130.338H761.126V114.163Z" fill="#A1C4BC"/>
<path d="M762.307 128.931H740.075V131.756H762.307V128.931Z" fill="#535461"/>
<g opacity="0.1">
<path opacity="0.1" d="M761.126 114.163H741.256V120.58H761.126V114.163Z" fill="black"/>
</g>
<path d="M775.52 117.294L751.255 92.7946L727.763 117.272L725.919 114.265L751.226 87.8969L777.327 114.243L775.52 117.294Z" fill="#B3D9D0"/>
<path d="M755.028 226.633C755.462 226.633 755.814 226.174 755.814 225.607C755.814 225.041 755.462 224.581 755.028 224.581C754.594 224.581 754.242 225.041 754.242 225.607C754.242 226.174 754.594 226.633 755.028 226.633Z" fill="#E0E0E0"/>
<g opacity="0.7">
<path opacity="0.7" d="M675.493 167.983H606V236.943H675.493V167.983Z" fill="url(#paint12_linear)"/>
</g>
<path d="M674.76 168.752H607.19V236.163H674.76V168.752Z" fill="#EEEEEE"/>
<g opacity="0.7">
<path opacity="0.7" d="M628.412 147.614H620.035V166.434H628.412V147.614Z" fill="url(#paint13_linear)"/>
</g>
<path d="M628.184 147.874H620.263V166.434H628.184V147.874Z" fill="#535461"/>
<g opacity="0.7">
<path opacity="0.7" d="M666.213 236.169H615.509V165.533L641.081 164.886L666.213 165.533V236.169Z" fill="url(#paint14_linear)"/>
</g>
<path d="M665.65 236.169H616.3V165.533L640.975 145.551L665.65 165.533V236.169Z" fill="white"/>
<path d="M647.201 212.448H634.749V236.163H647.201V212.448Z" fill="#535461"/>
<path opacity="0.5" d="M652.407 176.102H629.543V192.345H652.407V176.102Z" fill="#A1C4BC"/>
<path d="M653.761 190.923H628.183V193.761H653.761V190.923Z" fill="#535461"/>
<path d="M668.965 171.764L641.044 147.172L614.021 171.746L611.902 168.727L641.012 142.254L671.042 168.709L668.965 171.764Z" fill="#9FBFB8"/>
<path d="M643.152 228.219C643.989 228.219 644.667 227.441 644.667 226.482C644.667 225.523 643.989 224.746 643.152 224.746C642.316 224.746 641.638 225.523 641.638 226.482C641.638 227.441 642.316 228.219 643.152 228.219Z" fill="#E0E0E0"/>
<path opacity="0.1" d="M652.407 176.102H629.543V182.545H652.407V176.102Z" fill="black"/>
<path opacity="0.7" d="M668.965 171.51L641.044 146.918L614.021 171.492L611.902 168.467L641.012 142L671.042 168.449L668.965 171.51Z" fill="url(#paint15_linear)"/>
<path d="M556.506 152.153V140.308H567.613V162.262L556.506 152.153Z" fill="url(#paint16_linear)"/>
<path d="M557.824 152.973V142.627H566.107V162.262L557.824 152.973Z" fill="#A1C4BC"/>
<path d="M576.65 128.535C582.368 128.535 587.004 124.142 587.004 118.724C587.004 113.305 582.368 108.913 576.65 108.913C570.931 108.913 566.296 113.305 566.296 118.724C566.296 124.142 570.931 128.535 576.65 128.535Z" fill="url(#paint17_linear)"/>
<path d="M576.65 126.573C581.225 126.573 584.933 123.059 584.933 118.724C584.933 114.389 581.225 110.875 576.65 110.875C572.075 110.875 568.367 114.389 568.367 118.724C568.367 123.059 572.075 126.573 576.65 126.573Z" fill="#FF9800"/>
<path d="M488.071 163.404C489.6 161.747 490.735 159.799 491.401 157.69C492.066 155.582 492.246 153.363 491.929 151.183C491.611 149.003 490.804 146.914 489.56 145.055C488.317 143.196 486.667 141.612 484.722 140.41C485.728 138.935 486.261 137.216 486.258 135.46C486.258 130.494 482.103 126.467 476.979 126.467C472.758 126.467 469.2 129.202 468.076 132.941C465.653 129.061 461.257 126.467 456.236 126.467C448.599 126.467 442.409 132.466 442.409 139.868C442.407 141.444 442.693 143.009 443.256 144.493C442.975 144.472 442.691 144.452 442.409 144.452C436.279 144.452 431.301 149.268 431.301 155.209C431.301 155.574 431.32 155.936 431.358 156.295C428.864 157.356 426.749 159.08 425.271 161.259C423.792 163.437 423.013 165.976 423.029 168.566C423.029 175.942 429.2 181.923 436.812 181.923C437.611 181.922 438.41 181.854 439.197 181.72C439.155 182.164 439.131 182.612 439.131 183.07C439.131 191.347 446.055 198.055 454.597 198.055C457.755 198.054 460.834 197.118 463.403 195.379C465.471 197.1 468.129 198.051 470.881 198.055C477.261 198.055 482.435 193.042 482.435 186.857C482.435 186.59 482.412 186.322 482.393 186.064H482.435C489.269 186.064 494.807 180.696 494.807 174.074C494.818 171.883 494.196 169.73 493.009 167.85C491.821 165.969 490.114 164.431 488.071 163.404Z" fill="url(#paint18_linear)"/>
<path d="M486.285 163.332C487.72 161.777 488.786 159.948 489.411 157.969C490.036 155.99 490.205 153.907 489.907 151.861C489.609 149.814 488.85 147.853 487.683 146.108C486.516 144.363 484.967 142.876 483.141 141.748C484.083 140.366 484.584 138.755 484.583 137.11C484.583 132.449 480.684 128.669 475.872 128.669C471.919 128.669 468.571 131.236 467.515 134.744C466.382 132.903 464.762 131.374 462.814 130.308C460.865 129.242 458.657 128.677 456.408 128.669C449.239 128.669 443.427 134.3 443.427 141.246C443.425 142.726 443.694 144.195 444.222 145.588C443.958 145.569 443.694 145.549 443.427 145.549C437.666 145.547 433.007 150.066 433.007 155.649C433.007 155.993 433.026 156.332 433.06 156.668C430.718 157.663 428.731 159.281 427.342 161.326C425.953 163.371 425.221 165.754 425.235 168.186C425.235 175.111 431.028 180.723 438.173 180.723C438.923 180.722 439.672 180.658 440.411 180.532C440.374 180.949 440.349 181.372 440.349 181.798C440.349 189.567 446.848 195.866 454.866 195.866C457.829 195.869 460.719 194.996 463.132 193.368C465.075 194.979 467.569 195.866 470.151 195.866C476.139 195.866 480.997 191.16 480.997 185.355C480.997 185.104 480.976 184.858 480.957 184.61H480.997C487.411 184.61 492.61 179.57 492.61 173.356C492.622 171.297 492.038 169.275 490.923 167.508C489.808 165.741 488.204 164.297 486.285 163.332Z" fill="#00897B"/>
<path d="M463.383 147.278H460.011V226.749H463.383V147.278Z" fill="url(#paint19_linear)"/>
<path d="M462.665 148.394H460.969V226.749H462.665V148.394Z" fill="#795548"/>
<path d="M474.733 157.242L460.815 171.484L462.06 172.576L475.978 158.334L474.733 157.242Z" fill="#795548"/>
<path d="M447.512 173.475L446.501 174.766L460.931 184.92L461.943 183.63L447.512 173.475Z" fill="#795548"/>
<path d="M466.894 172.239C464.617 169.943 463.348 166.912 463.343 163.762C463.343 159.224 465.947 155.246 469.859 153.004C468.979 151.787 468.508 150.346 468.507 148.871C468.507 144.716 472.186 141.348 476.725 141.348C480.464 141.348 483.613 143.635 484.609 146.764C485.73 145.094 487.28 143.721 489.113 142.773C490.947 141.826 493.005 141.336 495.093 141.348C501.858 141.348 507.33 146.368 507.33 152.56C507.33 153.882 507.075 155.193 506.577 156.429C506.826 156.411 507.074 156.395 507.33 156.395C512.76 156.395 517.159 160.423 517.159 165.393C517.159 165.696 517.142 165.999 517.109 166.3C521.45 168.013 524.49 171.964 524.49 176.566C524.49 182.739 519.031 187.74 512.284 187.74C511.575 187.737 510.869 187.677 510.171 187.562C510.207 187.935 510.23 188.309 510.23 188.691C510.23 195.616 504.098 201.23 496.534 201.23C493.761 201.235 491.05 200.457 488.745 198.996C486.878 200.447 484.537 201.237 482.122 201.23C476.474 201.23 471.89 197.036 471.89 191.863C471.89 191.638 471.909 191.419 471.926 191.198H471.89C465.84 191.198 460.934 186.706 460.934 181.167C460.934 177.275 463.36 173.901 466.894 172.239Z" fill="url(#paint20_linear)"/>
<path d="M468.006 172.198C465.83 169.999 464.619 167.098 464.618 164.083C464.618 159.74 467.11 155.933 470.855 153.787C470.008 152.621 469.554 151.239 469.554 149.823C469.554 145.847 473.076 142.622 477.419 142.622C480.996 142.622 484.009 144.811 484.967 147.806C486.039 146.209 487.521 144.897 489.275 143.991C491.028 143.086 492.995 142.616 494.992 142.627C501.466 142.627 506.713 147.431 506.713 153.357C506.714 154.623 506.471 155.879 505.996 157.062C506.233 157.046 506.47 157.028 506.713 157.028C511.909 157.028 516.126 160.885 516.126 165.64C516.126 165.931 516.11 166.221 516.079 166.509C520.234 168.149 523.144 171.93 523.144 176.335C523.144 182.241 517.914 187.038 511.461 187.038C510.784 187.034 510.108 186.977 509.441 186.866C509.475 187.223 509.495 187.58 509.495 187.947C509.495 194.576 503.625 199.949 496.387 199.949C493.729 199.954 491.131 199.209 488.922 197.808C487.136 199.198 484.895 199.955 482.583 199.949C477.175 199.949 472.794 195.935 472.794 190.983C472.794 190.769 472.813 190.559 472.83 190.347H472.794C467.001 190.347 462.306 186.048 462.306 180.746C462.296 177.018 464.618 173.789 468.006 172.198Z" fill="#009688"/>
<path d="M492.083 159.645H488.248V226.346H492.083V159.645Z" fill="url(#paint21_linear)"/>
<path d="M491.289 159.645H489.169V226.346H491.289V159.645Z" fill="#795548"/>
<path d="M478.629 166.77L477.115 168.176L489.685 180.326L491.199 178.92L478.629 166.77Z" fill="#795548"/>
<path d="M502.865 180.575L489.834 189.24L491.052 190.884L504.083 182.219L502.865 180.575Z" fill="#795548"/>
<path d="M576.125 171.347H481.578C479.419 171.347 477.67 172.267 477.67 173.406V239.172H580.039V173.406C580.039 172.267 578.284 171.347 576.125 171.347Z" fill="url(#paint22_linear)"/>
<path d="M528.553 133.715L479.231 168.429V236.664H578.171V170.905L528.553 133.715Z" fill="white"/>
<path d="M528.651 175.434C534.717 175.434 539.634 170.774 539.634 165.027C539.634 159.279 534.717 154.62 528.651 154.62C522.585 154.62 517.668 159.279 517.668 165.027C517.668 170.774 522.585 175.434 528.651 175.434Z" fill="url(#paint23_linear)"/>
<path d="M508.059 185.097H488.644V203.493H508.059V185.097Z" fill="url(#paint24_linear)"/>
<path d="M568.267 185.097H548.851V203.493H568.267V185.097Z" fill="url(#paint25_linear)"/>
<path d="M469.718 185.743L467.088 171.804L528.769 126.885L589.828 172.701L588.134 185.207L528.76 142.756L469.718 185.743Z" fill="url(#paint26_linear)"/>
<path d="M469.838 182.944L468.029 173.313L528.754 128.414L588.887 173.316L587.066 182.938L528.745 139.388L469.838 182.944Z" fill="#9FBFB8"/>
<path d="M540.419 205.909H516.689V236.664H540.419V205.909Z" fill="url(#paint27_linear)"/>
<path d="M539.732 206.56H517.374V236.664H539.732V206.56Z" fill="#9FBFB8"/>
<path d="M507.569 185.746H489.527V191.786H507.569V185.746Z" fill="#A1C4BC"/>
<path opacity="0.2" d="M507.569 191.786H489.527V202.842H507.569V191.786Z" fill="#6C63FF"/>
<path d="M567.581 185.746H549.538V191.786H567.581V185.746Z" fill="#A1C4BC"/>
<path opacity="0.2" d="M567.581 191.786H549.538V202.842H567.581V191.786Z" fill="#6C63FF"/>
<path d="M528.553 174.412C529.867 174.412 531.169 174.166 532.383 173.689C533.597 173.212 534.7 172.514 535.629 171.633C536.558 170.751 537.295 169.706 537.797 168.555C538.299 167.404 538.557 166.17 538.555 164.925H518.551C518.549 166.17 518.807 167.404 519.309 168.555C519.811 169.706 520.548 170.751 521.477 171.633C522.406 172.514 523.509 173.212 524.723 173.689C525.937 174.166 527.239 174.412 528.553 174.412Z" fill="#A1C4BC"/>
<path opacity="0.2" d="M528.553 174.319C531.206 174.319 533.75 173.32 535.626 171.543C537.501 169.766 538.555 167.355 538.555 164.841H518.551C518.551 167.355 519.604 169.766 521.48 171.543C523.356 173.32 525.9 174.319 528.553 174.319Z" fill="#A1C4BC"/>
<path opacity="0.2" d="M528.553 155.456C525.902 155.456 523.359 156.454 521.484 158.229C519.608 160.005 518.553 162.413 518.551 164.925H538.555C538.553 162.413 537.498 160.005 535.622 158.229C533.747 156.454 531.204 155.456 528.553 155.456Z" fill="#A1C4BC"/>
<path opacity="0.2" d="M528.553 155.456C525.902 155.456 523.359 156.454 521.484 158.229C519.608 160.005 518.553 162.413 518.551 164.925H538.555C538.553 162.413 537.498 160.005 535.622 158.229C533.747 156.454 531.204 155.456 528.553 155.456Z" fill="#A1C4BC"/>
<path d="M534.534 223.749C535.834 223.749 536.887 222.751 536.887 221.519C536.887 220.288 535.834 219.289 534.534 219.289C533.234 219.289 532.181 220.288 532.181 221.519C532.181 222.751 533.234 223.749 534.534 223.749Z" fill="url(#paint28_linear)"/>
<path d="M534.534 223.192C535.509 223.192 536.3 222.443 536.3 221.519C536.3 220.595 535.509 219.846 534.534 219.846C533.559 219.846 532.768 220.595 532.768 221.519C532.768 222.443 533.559 223.192 534.534 223.192Z" fill="#263238"/>
<path d="M542.575 232.297H513.746V241.216H542.575V232.297Z" fill="url(#paint29_linear)"/>
<path d="M541.985 233.039H514.334V240.658H541.985V233.039Z" fill="#EEEEEE"/>
<path d="M486.761 211.728C487.465 210.964 487.988 210.066 488.295 209.094C488.601 208.123 488.684 207.1 488.538 206.095C488.392 205.091 488.019 204.128 487.446 203.271C486.874 202.414 486.113 201.684 485.217 201.13C485.681 200.45 485.927 199.658 485.925 198.848C485.951 197.861 485.595 196.898 484.922 196.142C484.25 195.387 483.31 194.89 482.278 194.747C481.246 194.604 480.194 194.825 479.322 195.366C478.45 195.908 477.817 196.734 477.544 197.687C476.987 196.782 476.19 196.03 475.233 195.507C474.275 194.983 473.19 194.706 472.084 194.703C468.564 194.703 465.71 197.468 465.71 200.88C465.707 201.61 465.839 202.334 466.099 203.021C465.969 203.012 465.841 203.001 465.71 203.001C462.886 203.001 460.593 205.22 460.593 207.958C460.593 208.128 460.593 208.294 460.619 208.46C459.469 208.948 458.494 209.743 457.812 210.747C457.129 211.752 456.77 212.922 456.777 214.116C456.777 217.516 459.621 220.272 463.13 220.272C463.499 220.272 463.867 220.24 464.23 220.178C464.211 220.383 464.2 220.59 464.2 220.8C464.2 224.616 467.4 227.709 471.329 227.709C472.784 227.709 474.203 227.279 475.388 226.478C476.342 227.271 477.567 227.708 478.835 227.709C481.776 227.709 484.161 225.39 484.161 222.548C484.161 222.425 484.152 222.304 484.142 222.183H484.161C487.311 222.183 489.863 219.709 489.863 216.653C489.87 215.642 489.584 214.648 489.037 213.78C488.49 212.912 487.703 212.202 486.761 211.728Z" fill="url(#paint30_linear)"/>
<path d="M485.936 211.696C486.598 210.979 487.089 210.136 487.377 209.224C487.664 208.311 487.742 207.351 487.605 206.408C487.467 205.465 487.118 204.561 486.58 203.757C486.042 202.953 485.328 202.267 484.487 201.747C484.922 201.109 485.153 200.366 485.151 199.606C485.176 198.679 484.841 197.775 484.21 197.066C483.58 196.357 482.696 195.891 481.728 195.756C480.759 195.622 479.772 195.829 478.953 196.338C478.134 196.846 477.54 197.621 477.284 198.517C476.762 197.668 476.015 196.963 475.117 196.472C474.219 195.981 473.202 195.72 472.165 195.716C468.861 195.716 466.182 198.311 466.182 201.513C466.182 202.196 466.306 202.873 466.549 203.515C466.429 203.515 466.306 203.497 466.182 203.497C463.53 203.497 461.38 205.581 461.38 208.151C461.38 208.31 461.38 208.467 461.404 208.62C460.325 209.079 459.409 209.825 458.769 210.767C458.129 211.71 457.791 212.808 457.797 213.929C457.797 217.12 460.467 219.709 463.761 219.709C464.107 219.708 464.452 219.679 464.793 219.621C464.776 219.814 464.765 220.008 464.765 220.205C464.765 223.786 467.76 226.689 471.455 226.689C472.822 226.689 474.154 226.285 475.266 225.533C476.161 226.277 477.311 226.688 478.502 226.689C481.264 226.689 483.5 224.52 483.5 221.844C483.5 221.728 483.491 221.614 483.481 221.5H483.5C486.456 221.5 488.854 219.181 488.854 216.312C488.859 215.364 488.589 214.432 488.075 213.618C487.56 212.805 486.821 212.14 485.936 211.696Z" fill="#00897B"/>
<path d="M475.381 204.296H473.826V240.929H475.381V204.296Z" fill="url(#paint31_linear)"/>
<path d="M475.049 204.81H474.268V240.929H475.049V204.81Z" fill="#795548"/>
<path d="M480.615 208.882L474.199 215.447L474.772 215.95L481.188 209.385L480.615 208.882Z" fill="#795548"/>
<path d="M468.064 216.375L467.598 216.969L474.25 221.65L474.716 221.055L468.064 216.375Z" fill="#795548"/>
<path d="M477.002 215.802C475.951 214.744 475.366 213.346 475.366 211.894C475.372 210.891 475.654 209.907 476.181 209.038C476.709 208.169 477.466 207.444 478.378 206.935C477.97 206.373 477.751 205.708 477.751 205.026C477.751 203.11 479.445 201.558 481.539 201.558C482.347 201.549 483.137 201.787 483.792 202.237C484.447 202.687 484.931 203.324 485.174 204.055C485.69 203.285 486.405 202.652 487.25 202.215C488.095 201.779 489.044 201.552 490.007 201.558C493.124 201.558 495.654 203.877 495.654 206.731C495.655 207.341 495.537 207.945 495.308 208.515C495.423 208.515 495.538 208.499 495.654 208.499C498.156 208.499 500.186 210.356 500.186 212.646C500.186 212.786 500.178 212.926 500.163 213.066C501.161 213.447 502.017 214.1 502.622 214.943C503.228 215.785 503.556 216.779 503.565 217.798C503.565 220.643 501.046 222.95 497.938 222.95C497.612 222.949 497.286 222.923 496.965 222.871C496.982 223.05 496.991 223.216 496.991 223.392C496.991 226.583 494.167 229.172 490.677 229.172C489.397 229.175 488.145 228.817 487.081 228.143C486.219 228.809 485.138 229.17 484.026 229.165C481.42 229.165 479.31 227.231 479.31 224.846C479.31 224.743 479.31 224.641 479.327 224.539H479.31C476.52 224.539 474.259 222.468 474.259 219.915C474.265 219.056 474.526 218.215 475.01 217.488C475.495 216.761 476.185 216.177 477.002 215.802Z" fill="url(#paint32_linear)"/>
<path d="M477.512 215.782C476.506 214.768 475.946 213.428 475.945 212.036C475.951 211.077 476.219 210.136 476.723 209.304C477.227 208.472 477.949 207.778 478.82 207.289C478.429 206.752 478.22 206.115 478.22 205.463C478.22 203.629 479.842 202.143 481.846 202.143C482.619 202.136 483.374 202.364 484.001 202.794C484.627 203.224 485.091 203.833 485.325 204.532C485.819 203.795 486.503 203.189 487.312 202.772C488.121 202.354 489.029 202.138 489.95 202.143C492.934 202.143 495.353 204.357 495.353 207.09C495.354 207.673 495.241 208.252 495.022 208.797C495.131 208.797 495.24 208.781 495.353 208.781C497.748 208.781 499.683 210.565 499.683 212.752C499.683 212.886 499.676 213.02 499.661 213.153C500.616 213.518 501.435 214.143 502.014 214.949C502.594 215.755 502.909 216.707 502.918 217.682C502.918 220.404 500.506 222.613 497.531 222.613C497.216 222.613 496.901 222.588 496.59 222.538C496.607 222.702 496.616 222.868 496.616 223.035C496.616 226.091 493.911 228.565 490.573 228.565C489.348 228.569 488.15 228.226 487.132 227.581C486.308 228.22 485.275 228.568 484.21 228.565C481.717 228.565 479.692 226.715 479.692 224.432C479.692 224.334 479.692 224.236 479.709 224.14H479.692C477.022 224.14 474.857 222.158 474.857 219.714C474.867 218.889 475.121 218.083 475.591 217.388C476.06 216.693 476.725 216.137 477.512 215.782Z" fill="#009688"/>
<path d="M488.61 209.995H486.842V240.742H488.61V209.995Z" fill="url(#paint33_linear)"/>
<path d="M488.244 209.995H487.267V240.742H488.244V209.995Z" fill="#795548"/>
<path d="M482.408 213.281L481.711 213.929L487.506 219.53L488.203 218.882L482.408 213.281Z" fill="#795548"/>
<path d="M493.582 219.642L487.575 223.636L488.136 224.394L494.143 220.4L493.582 219.642Z" fill="#795548"/>
<path d="M439.826 198.775L452.545 211.301L466.935 198.775" stroke="#37474F" stroke-miterlimit="10"/>
<path d="M435.81 192.432H427.276V242.379H435.81V192.432Z" fill="url(#paint34_linear)"/>
<path d="M435.14 193.383H427.945V240.635H435.14V193.383Z" fill="#F5F5F5"/>
<path d="M476.307 194.494H425.1V203.215H476.307V194.494Z" fill="url(#paint35_linear)"/>
<path d="M425.77 195.445V202.263H475.639V195.445H425.77Z" fill="#F5F5F5"/>
<path d="M431.627 200.202C432.459 200.202 433.133 199.563 433.133 198.775C433.133 197.987 432.459 197.348 431.627 197.348C430.795 197.348 430.121 197.987 430.121 198.775C430.121 199.563 430.795 200.202 431.627 200.202Z" fill="url(#paint36_linear)"/>
<path d="M471.956 200.202C472.788 200.202 473.462 199.563 473.462 198.775C473.462 197.987 472.788 197.348 471.956 197.348C471.124 197.348 470.45 197.987 470.45 198.775C470.45 199.563 471.124 200.202 471.956 200.202Z" fill="url(#paint37_linear)"/>
<path d="M431.627 199.885C432.274 199.885 432.798 199.388 432.798 198.775C432.798 198.162 432.274 197.666 431.627 197.666C430.98 197.666 430.456 198.162 430.456 198.775C430.456 199.388 430.98 199.885 431.627 199.885Z" fill="#E6E6E6"/>
<path d="M471.956 199.885C472.603 199.885 473.127 199.388 473.127 198.775C473.127 198.162 472.603 197.666 471.956 197.666C471.309 197.666 470.785 198.162 470.785 198.775C470.785 199.388 471.309 199.885 471.956 199.885Z" fill="#E6E6E6"/>
<path d="M469.614 210.508H437.316V231.278H469.614V210.508Z" fill="url(#paint38_linear)"/>
<path d="M469.362 210.747H437.567V230.726H469.362V210.747Z" fill="#9FBFB8"/>
<path d="M463.673 213.916H441.249V215.82H463.673V213.916Z" fill="white"/>
<path d="M461.246 217.643H445.349V219.546H461.246V217.643Z" fill="white"/>
<path d="M462.584 221.369H443.34V223.273H462.584V221.369Z" fill="white"/>
<path d="M463.923 225.096H441.499V226.999H463.923V225.096Z" fill="white"/>
<path d="M561.54 217.454C560.9 216.76 560.425 215.943 560.147 215.06C559.868 214.177 559.793 213.247 559.926 212.334C560.059 211.421 560.398 210.546 560.918 209.767C561.439 208.989 562.13 208.325 562.945 207.821C562.523 207.203 562.299 206.483 562.301 205.747C562.275 204.848 562.599 203.971 563.21 203.283C563.821 202.595 564.677 202.143 565.616 202.013C566.555 201.883 567.512 202.083 568.306 202.577C569.099 203.07 569.674 203.822 569.922 204.691C570.427 203.868 571.152 203.185 572.022 202.709C572.892 202.233 573.879 201.981 574.884 201.977C578.085 201.977 580.679 204.493 580.679 207.593C580.68 208.254 580.56 208.91 580.325 209.532C580.442 209.532 580.56 209.514 580.679 209.514C583.249 209.514 585.331 211.532 585.331 214.022C585.331 214.175 585.331 214.327 585.306 214.477C586.352 214.921 587.239 215.643 587.859 216.556C588.48 217.469 588.806 218.534 588.8 219.619C588.8 222.711 586.214 225.217 583.024 225.217C582.689 225.217 582.355 225.188 582.025 225.131C582.042 225.31 582.053 225.506 582.053 225.697C582.053 229.167 579.152 231.978 575.571 231.978C574.248 231.979 572.957 231.588 571.879 230.859C571.012 231.58 569.897 231.978 568.743 231.978C566.07 231.978 563.901 229.876 563.901 227.285C563.901 227.172 563.901 227.062 563.918 226.951H563.901C561.038 226.951 558.716 224.702 558.716 221.926C558.712 221.007 558.973 220.105 559.47 219.317C559.968 218.529 560.684 217.884 561.54 217.454Z" fill="url(#paint39_linear)"/>
<path d="M562.289 217.425C561.688 216.774 561.242 216.007 560.98 215.178C560.718 214.349 560.648 213.476 560.773 212.619C560.898 211.761 561.215 210.939 561.704 210.208C562.193 209.477 562.842 208.854 563.607 208.381C563.211 207.802 563.001 207.126 563.003 206.435C562.98 205.592 563.284 204.769 563.857 204.124C564.431 203.478 565.234 203.054 566.115 202.932C566.997 202.81 567.894 202.998 568.639 203.461C569.384 203.924 569.924 204.629 570.157 205.443C570.632 204.671 571.311 204.03 572.128 203.583C572.945 203.136 573.871 202.899 574.814 202.896C577.827 202.896 580.253 205.256 580.253 208.167C580.254 208.787 580.141 209.403 579.92 209.987C580.031 209.987 580.14 209.971 580.253 209.971C582.665 209.971 584.619 211.865 584.619 214.202C584.619 214.346 584.619 214.489 584.596 214.628C585.578 215.045 586.41 215.723 586.993 216.58C587.575 217.437 587.882 218.436 587.876 219.455C587.876 222.358 585.449 224.709 582.454 224.709C582.138 224.708 581.823 224.682 581.513 224.628C581.53 224.807 581.539 224.985 581.539 225.164C581.539 228.419 578.815 231.059 575.454 231.059C574.212 231.059 573.001 230.692 571.99 230.009C571.177 230.685 570.132 231.058 569.05 231.059C566.54 231.059 564.505 229.088 564.505 226.655C564.505 226.55 564.505 226.446 564.522 226.343H564.505C561.817 226.343 559.639 224.231 559.639 221.626C559.634 220.764 559.879 219.916 560.346 219.176C560.813 218.435 561.485 217.83 562.289 217.425Z" fill="#00897B"/>
<path d="M573.299 210.697H571.885V244.003H573.299V210.697Z" fill="url(#paint40_linear)"/>
<path d="M572.898 211.164H572.186V244.003H572.898V211.164Z" fill="#795548"/>
<path d="M567.13 214.887L566.608 215.345L572.441 221.314L572.963 220.856L567.13 214.887Z" fill="#795548"/>
<path d="M578.538 221.672L572.49 225.928L572.914 226.469L578.963 222.213L578.538 221.672Z" fill="#795548"/>
<path d="M570.411 221.157C571.365 220.195 571.897 218.924 571.898 217.604C571.894 216.692 571.64 215.796 571.162 215.005C570.683 214.214 569.997 213.554 569.168 213.089C569.538 212.578 569.735 211.973 569.733 211.353C569.733 209.612 568.191 208.199 566.29 208.199C565.555 208.192 564.838 208.409 564.243 208.817C563.648 209.226 563.207 209.805 562.986 210.468C562.516 209.769 561.867 209.193 561.098 208.796C560.33 208.399 559.467 208.194 558.592 208.199C555.757 208.199 553.46 210.302 553.46 212.898C553.46 213.452 553.566 214.002 553.774 214.519C553.671 214.519 553.565 214.505 553.46 214.505C551.186 214.505 549.341 216.193 549.341 218.276C549.341 218.403 549.348 218.53 549.361 218.656C548.454 219.003 547.676 219.597 547.126 220.363C546.575 221.129 546.277 222.032 546.268 222.959C546.268 225.545 548.56 227.641 551.383 227.641C551.68 227.641 551.976 227.617 552.268 227.57C552.253 227.725 552.244 227.884 552.244 228.043C552.244 230.945 554.814 233.298 557.984 233.298C559.147 233.301 560.285 232.974 561.252 232.361C562.035 232.975 563.02 233.31 564.036 233.309C566.405 233.309 568.325 231.552 568.325 229.384C568.325 229.29 568.325 229.206 568.31 229.106H568.325C570.861 229.106 572.917 227.224 572.917 224.901C572.911 224.118 572.673 223.351 572.23 222.689C571.787 222.027 571.156 221.497 570.411 221.157Z" fill="url(#paint41_linear)"/>
<path d="M569.948 221.141C570.864 220.221 571.376 219.004 571.379 217.739C571.373 216.867 571.13 216.012 570.672 215.256C570.214 214.499 569.557 213.868 568.766 213.424C569.121 212.936 569.311 212.357 569.312 211.763C569.312 210.097 567.836 208.745 566.015 208.745C565.312 208.738 564.625 208.946 564.055 209.337C563.486 209.728 563.064 210.282 562.852 210.918C562.403 210.248 561.781 209.697 561.045 209.317C560.31 208.937 559.484 208.74 558.647 208.745C555.934 208.745 553.735 210.759 553.735 213.242C553.735 213.773 553.837 214.299 554.036 214.794C553.936 214.794 553.837 214.78 553.735 214.78C551.557 214.78 549.793 216.396 549.793 218.389C549.793 218.508 549.8 218.627 549.813 218.745C548.945 219.077 548.201 219.645 547.673 220.378C547.146 221.111 546.86 221.976 546.852 222.862C546.852 225.338 549.043 227.345 551.747 227.345C552.031 227.345 552.314 227.322 552.594 227.277C552.579 227.427 552.571 227.577 552.571 227.731C552.571 230.508 555.032 232.761 558.065 232.761C559.178 232.765 560.268 232.454 561.194 231.869C561.943 232.45 562.882 232.765 563.85 232.761C566.109 232.761 567.954 231.079 567.954 229.004C567.954 228.915 567.954 228.826 567.939 228.738H567.954C570.381 228.738 572.35 226.937 572.35 224.714C572.342 223.965 572.112 223.234 571.688 222.602C571.263 221.971 570.66 221.465 569.948 221.141Z" fill="#009688"/>
<path d="M561.467 215.88H559.859V243.835H561.467V215.88Z" fill="url(#paint42_linear)"/>
<path d="M561.079 215.88H560.19V243.835H561.079V215.88Z" fill="#795548"/>
<path d="M565.496 218.867L560.228 223.958L560.863 224.548L566.131 219.456L565.496 218.867Z" fill="#795548"/>
<path d="M555.339 224.655L554.829 225.345L560.29 228.976L560.8 228.287L555.339 224.655Z" fill="#795548"/>
<g opacity="0.7">
<path opacity="0.7" d="M407.493 169.983H338V238.943H407.493V169.983Z" fill="url(#paint43_linear)"/>
</g>
<path d="M406.76 170.751H339.19V238.163H406.76V170.751Z" fill="#EEEEEE"/>
<g opacity="0.7">
<path opacity="0.7" d="M360.412 149.614H352.035V168.434H360.412V149.614Z" fill="url(#paint44_linear)"/>
</g>
<path d="M360.183 149.874H352.263V168.434H360.183V149.874Z" fill="#535461"/>
<g opacity="0.7">
<path opacity="0.7" d="M398.213 238.169H347.509V167.533L373.081 166.886L398.213 167.533V238.169Z" fill="url(#paint45_linear)"/>
</g>
<path d="M397.65 238.169H348.3V167.533L372.975 147.551L397.65 167.533V238.169Z" fill="white"/>
<path d="M379.201 214.448H366.749V238.163H379.201V214.448Z" fill="#535461"/>
<path opacity="0.5" d="M384.407 178.102H361.543V194.345H384.407V178.102Z" fill="#A1C4BC"/>
<path d="M385.761 192.923H360.184V195.761H385.761V192.923Z" fill="#535461"/>
<path d="M400.965 173.764L373.044 149.172L346.021 173.746L343.902 170.727L373.012 144.254L403.042 170.709L400.965 173.764Z" fill="#A1C4BC"/>
<path opacity="0.7" d="M400.965 173.51L373.044 148.918L346.021 173.492L343.902 170.467L373.012 144L403.042 170.449L400.965 173.51Z" fill="url(#paint46_linear)"/>
<path opacity="0.1" d="M384.407 178.102H361.543V184.545H384.407V178.102Z" fill="black"/>
<path d="M375.152 230.219C375.989 230.219 376.667 229.441 376.667 228.482C376.667 227.523 375.989 226.746 375.152 226.746C374.316 226.746 373.638 227.523 373.638 228.482C373.638 229.441 374.316 230.219 375.152 230.219Z" fill="#EEEEEE"/>
<g opacity="0.7">
<path opacity="0.7" d="M313.461 238.19H213.707L214.395 141.057L242.923 131.24H283.261L312.773 138.195L313.461 238.19Z" fill="url(#paint47_linear)"/>
</g>
<path d="M312.082 236.965H215.086L215.777 142.282L243.018 132.47H283.751L311.391 139.419L312.082 236.965Z" fill="#EEEEEE"/>
<g opacity="0.7">
<path opacity="0.7" d="M252.268 89.3844H244.989V108.132H252.268V89.3844Z" fill="url(#paint48_linear)"/>
</g>
<g opacity="0.7">
<path opacity="0.7" d="M244.989 147.136V126.874H213.37L208 147.136V149.215H245.186V147.136H244.989Z" fill="url(#paint49_linear)"/>
</g>
<path d="M244.989 147.163H208.395L213.707 127.132H244.989V147.163Z" fill="#B3D9D0"/>
<path opacity="0.1" d="M244.989 147.163H208.395L213.707 127.132H244.989V147.163Z" fill="black"/>
<path d="M245.19 147.163H208.395V149.22H245.19V147.163Z" fill="#B3D9D0"/>
<g opacity="0.7">
<path opacity="0.7" d="M313.094 127.132H281.393V147.625H281.192V149.73H318.477V147.625L313.094 127.132Z" fill="url(#paint50_linear)"/>
</g>
<path d="M281.389 147.674H317.987L312.675 127.648H281.389V147.674Z" fill="#B3D9D0"/>
<path opacity="0.1" d="M281.389 147.674H317.987L312.675 127.648H281.389V147.674Z" fill="black"/>
<path d="M281.192 149.73H317.987V147.674H281.192V149.73Z" fill="#B3D9D0"/>
<path opacity="0.5" d="M238.1 201.983H218.23V218.158H238.1V201.983Z" fill="#A1C4BC"/>
<path opacity="0.1" d="M239.286 217.004H217.053V219.829H239.286V217.004Z" fill="black"/>
<path d="M239.286 216.751H217.053V219.576H239.286V216.751Z" fill="#535461"/>
<g opacity="0.1">
<path opacity="0.1" d="M238.1 201.983H218.23V208.401H238.1V201.983Z" fill="black"/>
</g>
<path opacity="0.5" d="M308.346 201.983H288.475V218.158H308.346V201.983Z" fill="#A1C4BC"/>
<path opacity="0.1" d="M309.527 217.004H287.294V219.829H309.527V217.004Z" fill="black"/>
<path d="M309.527 216.751H287.294V219.576H309.527V216.751Z" fill="#535461"/>
<g opacity="0.1">
<path opacity="0.1" d="M308.346 201.983H288.475V208.401H308.346V201.983Z" fill="black"/>
</g>
<path opacity="0.5" d="M308.346 164.235H288.475V180.411H308.346V164.235Z" fill="#A1C4BC"/>
<path opacity="0.1" d="M309.527 179.262H287.294V182.086H309.527V179.262Z" fill="black"/>
<path d="M309.527 179.004H287.294V181.829H309.527V179.004Z" fill="#535461"/>
<g opacity="0.1">
<path opacity="0.1" d="M308.346 164.235H288.475V170.653H308.346V164.235Z" fill="black"/>
</g>
<path opacity="0.5" d="M238.693 164.235H218.822V180.411H238.693V164.235Z" fill="#B3D9D0"/>
<path opacity="0.1" d="M239.874 179.262H217.641V182.086H239.874V179.262Z" fill="black"/>
<path d="M239.874 179.004H217.641V181.829H239.874V179.004Z" fill="#535461"/>
<g opacity="0.1">
<path opacity="0.1" d="M238.693 164.235H218.822V170.653H238.693V164.235Z" fill="black"/>
</g>
<g opacity="0.7">
<path opacity="0.7" d="M287.52 116.392L263.255 91.8977L239.763 116.375L237.919 113.368L263.226 87L289.327 113.347L287.52 116.392Z" fill="url(#paint51_linear)"/>
</g>
<path opacity="0.1" d="M241.742 149.215H215.576V149.601H241.742V149.215Z" fill="black"/>
<path opacity="0.1" d="M311.592 149.73H285.13V150.117H311.592V149.73Z" fill="black"/>
<path d="M252.075 89.6422H245.186V108.132H252.075V89.6422Z" fill="#535461"/>
<g opacity="0.7">
<path opacity="0.7" d="M285.228 237.422H241.154V113.116L263.382 111.983L285.228 113.116V237.422Z" fill="url(#paint52_linear)"/>
</g>
<path d="M284.636 237.422H241.742V112.622L263.189 91.5701L285.031 113.395L284.636 237.422Z" fill="white"/>
<path d="M268.6 213.798H257.778V237.422H268.6V213.798Z" fill="#535461"/>
<path opacity="0.1" d="M274.307 192.612H252.075V195.437H274.307V192.612Z" fill="black"/>
<path opacity="0.5" d="M273.126 177.591H253.256V193.767H273.126V177.591Z" fill="#A1C4BC"/>
<path d="M274.307 192.354H252.075V195.179H274.307V192.354Z" fill="#535461"/>
<g opacity="0.1">
<path opacity="0.1" d="M273.126 177.591H253.256V184.009H273.126V177.591Z" fill="black"/>
</g>
<path opacity="0.5" d="M273.126 145.88H253.256V162.055H273.126V145.88Z" fill="#A1C4BC"/>
<path d="M274.307 160.643H252.075V163.467H274.307V160.643Z" fill="#535461"/>
<g opacity="0.1">
<path opacity="0.1" d="M273.126 145.88H253.256V152.297H273.126V145.88Z" fill="black"/>
</g>
<path opacity="0.5" d="M273.126 114.163H253.256V130.338H273.126V114.163Z" fill="#A1C4BC"/>
<path d="M274.307 128.931H252.075V131.756H274.307V128.931Z" fill="#535461"/>
<g opacity="0.1">
<path opacity="0.1" d="M273.126 114.163H253.256V120.58H273.126V114.163Z" fill="black"/>
</g>
<path d="M287.52 117.294L263.255 92.7946L239.763 117.272L237.919 114.265L263.226 87.8969L289.327 114.243L287.52 117.294Z" fill="#B3D9D0"/>
<path d="M267.028 226.633C267.462 226.633 267.814 226.174 267.814 225.607C267.814 225.041 267.462 224.581 267.028 224.581C266.594 224.581 266.242 225.041 266.242 225.607C266.242 226.174 266.594 226.633 267.028 226.633Z" fill="#E0E0E0"/>
<g opacity="0.7">
<path opacity="0.7" d="M181.562 239.294H76.9804L77.7045 170.104L107.614 163.111H149.9L180.838 168.064L181.562 239.294Z" fill="url(#paint53_linear)"/>
</g>
<path d="M180.114 238.421H78.4286L79.1526 170.976L107.71 163.983H150.414L179.39 168.936L180.114 238.421Z" fill="#EEEEEE"/>
<g opacity="0.7">
<path opacity="0.7" d="M117.41 138.347H109.779V159.617H117.41V138.347Z" fill="url(#paint54_linear)"/>
</g>
<g opacity="0.7">
<path opacity="0.7" d="M109.775 186.682V163.692H76.6291L71 186.682V189.038H109.985V186.682H109.775Z" fill="url(#paint55_linear)"/>
</g>
<path d="M109.779 186.707H71.4117L76.9805 163.983H109.779V186.707Z" fill="#C6F1E7"/>
<path opacity="0.1" d="M109.779 186.707H71.4117L76.9805 163.983H109.779V186.707Z" fill="black"/>
<path d="M109.985 186.707H71.4117V189.038H109.985V186.707Z" fill="#C6F1E7"/>
<g opacity="0.7">
<path opacity="0.7" d="M181.175 163.402H147.94V186.652H147.731V189.038H186.822V186.652L181.175 163.402Z" fill="url(#paint56_linear)"/>
</g>
<path d="M147.937 186.707H186.304L180.735 163.983H147.937V186.707Z" fill="#C6F1E7"/>
<path opacity="0.1" d="M147.937 186.707H186.304L180.735 163.983H147.937V186.707Z" fill="black"/>
<path d="M147.731 189.038H186.304V186.707H147.731V189.038Z" fill="#C6F1E7"/>
<path opacity="0.5" d="M102.56 198.217H81.7258V216.57H102.56V198.217Z" fill="#B3D9D0"/>
<path opacity="0.1" d="M103.795 215.261H80.4871V218.465H103.795V215.261Z" fill="black"/>
<path d="M103.795 214.97H80.4871V218.174H103.795V214.97Z" fill="#535461"/>
<g opacity="0.1">
<path opacity="0.1" d="M102.56 198.217H81.7258V205.501H102.56V198.217Z" fill="black"/>
</g>
<path opacity="0.5" d="M176.199 198.217H155.365V216.57H176.199V198.217Z" fill="#B3D9D0"/>
<path opacity="0.1" d="M177.435 215.261H154.127V218.465H177.435V215.261Z" fill="black"/>
<path d="M177.435 214.97H154.127V218.174H177.435V214.97Z" fill="#535461"/>
<g opacity="0.1">
<path opacity="0.1" d="M176.199 198.217H155.365V205.501H176.199V198.217Z" fill="black"/>
</g>
<g opacity="0.7">
<path opacity="0.7" d="M154.368 165.347L128.924 137.554L104.299 165.326L102.368 161.913L128.895 132L156.26 161.893L154.368 165.347Z" fill="url(#paint57_linear)"/>
</g>
<path opacity="0.1" d="M106.375 189.038H78.9396V189.474H106.375V189.038Z" fill="black"/>
<path opacity="0.1" d="M179.603 189.038H151.859V189.474H179.603V189.038Z" fill="black"/>
<path d="M117.204 138.637H109.985V159.612H117.204V138.637Z" fill="#535461"/>
<g opacity="0.7">
<path opacity="0.7" d="M151.859 238.421H105.655V158.594L128.956 157.867L151.859 158.594V238.421Z" fill="url(#paint58_linear)"/>
</g>
<path d="M151.341 238.421H106.375V158.594L128.86 136.015L151.341 158.594V238.421Z" fill="white"/>
<path d="M134.528 211.617H123.184V238.421H134.528V211.617Z" fill="#535461"/>
<path opacity="0.1" d="M140.512 187.584H117.204V190.788H140.512V187.584Z" fill="black"/>
<path opacity="0.5" d="M139.277 170.54H118.443V188.893H139.277V170.54Z" fill="#B3D9D0"/>
<path d="M140.512 187.294H117.204V190.497H140.512V187.294Z" fill="#535461"/>
<g opacity="0.1">
<path opacity="0.1" d="M139.277 170.54H118.443V177.824H139.277V170.54Z" fill="black"/>
</g>
<path d="M154.368 165.637L128.924 137.845L104.299 165.617L102.368 162.203L128.895 132.291L156.26 162.183L154.368 165.637Z" fill="#C6F1E7"/>
<path d="M132.881 226.185C133.336 226.185 133.704 225.664 133.704 225.022C133.704 224.379 133.336 223.859 132.881 223.859C132.426 223.859 132.058 224.379 132.058 225.022C132.058 225.664 132.426 226.185 132.881 226.185Z" fill="#E0E0E0"/>
</g>
<defs>
<linearGradient id="paint0_linear" x1="884.271" y1="239.294" x2="884.271" y2="163.111" gradientUnits="userSpaceOnUse">
<stop stop-color="#808080" stop-opacity="0.25"/>
<stop offset="0.54" stop-color="#808080" stop-opacity="0.12"/>
<stop offset="1" stop-color="#808080" stop-opacity="0.1"/>
</linearGradient>
<linearGradient id="paint1_linear" x1="3346.71" y1="2738.63" x2="3346.71" y2="1836.35" gradientUnits="userSpaceOnUse">
<stop stop-color="#808080" stop-opacity="0.25"/>
<stop offset="0.54" stop-color="#808080" stop-opacity="0.12"/>
<stop offset="1" stop-color="#808080" stop-opacity="0.1"/>
</linearGradient>
<linearGradient id="paint2_linear" x1="10968.3" y1="4750.02" x2="10968.3" y2="3468.54" gradientUnits="userSpaceOnUse">
<stop stop-color="#808080" stop-opacity="0.25"/>
<stop offset="0.54" stop-color="#808080" stop-opacity="0.12"/>
<stop offset="1" stop-color="#808080" stop-opacity="0.1"/>
</linearGradient>
<linearGradient id="paint3_linear" x1="19529.8" y1="4802.34" x2="19529.8" y2="3491.28" gradientUnits="userSpaceOnUse">
<stop stop-color="#808080" stop-opacity="0.25"/>
<stop offset="0.54" stop-color="#808080" stop-opacity="0.12"/>
<stop offset="1" stop-color="#808080" stop-opacity="0.1"/>
</linearGradient>
<linearGradient id="paint4_linear" x1="20772.5" y1="4590.1" x2="20772.5" y2="2371.89" gradientUnits="userSpaceOnUse">
<stop stop-color="#C6F1E7" stop-opacity="0.25"/>
<stop offset="0.54" stop-color="#808080" stop-opacity="0.12"/>
<stop offset="1" stop-color="#808080" stop-opacity="0.1"/>
</linearGradient>
<linearGradient id="paint5_linear" x1="17862.3" y1="22669.5" x2="17862.3" y2="9725.29" gradientUnits="userSpaceOnUse">
<stop stop-color="#808080" stop-opacity="0.25"/>
<stop offset="0.54" stop-color="#808080" stop-opacity="0.12"/>
<stop offset="1" stop-color="#808080" stop-opacity="0.1"/>
</linearGradient>
<linearGradient id="paint6_linear" x1="74046.3" y1="30240.6" x2="74046.3" y2="8941.72" gradientUnits="userSpaceOnUse">
<stop stop-color="#808080" stop-opacity="0.25"/>
<stop offset="0.54" stop-color="#808080" stop-opacity="0.12"/>
<stop offset="1" stop-color="#808080" stop-opacity="0.1"/>
</linearGradient>
<linearGradient id="paint7_linear" x1="5820.59" y1="827.106" x2="5820.59" y2="172.624" gradientUnits="userSpaceOnUse">
<stop stop-color="#808080" stop-opacity="0.25"/>
<stop offset="0.54" stop-color="#808080" stop-opacity="0.12"/>
<stop offset="1" stop-color="#808080" stop-opacity="0.1"/>
</linearGradient>
<linearGradient id="paint8_linear" x1="24694.9" y1="2715.01" x2="24694.9" y2="1785.65" gradientUnits="userSpaceOnUse">
<stop stop-color="#808080" stop-opacity="0.25"/>
<stop offset="0.54" stop-color="#808080" stop-opacity="0.12"/>
<stop offset="1" stop-color="#808080" stop-opacity="0.1"/>
</linearGradient>
<linearGradient id="paint9_linear" x1="31468.2" y1="2766.82" x2="31468.2" y2="1815.89" gradientUnits="userSpaceOnUse">
<stop stop-color="#808080" stop-opacity="0.25"/>
<stop offset="0.54" stop-color="#808080" stop-opacity="0.12"/>
<stop offset="1" stop-color="#808080" stop-opacity="0.1"/>
</linearGradient>
<linearGradient id="paint10_linear" x1="38528.8" y1="1695.6" x2="38528.8" y2="87" gradientUnits="userSpaceOnUse">
<stop stop-color="#808080" stop-opacity="0.25"/>
<stop offset="0.54" stop-color="#808080" stop-opacity="0.12"/>
<stop offset="1" stop-color="#808080" stop-opacity="0.1"/>
</linearGradient>
<linearGradient id="paint11_linear" x1="33093.2" y1="35247.5" x2="33093.2" y2="5947.41" gradientUnits="userSpaceOnUse">
<stop stop-color="#808080" stop-opacity="0.25"/>
<stop offset="0.54" stop-color="#808080" stop-opacity="0.12"/>
<stop offset="1" stop-color="#808080" stop-opacity="0.1"/>
</linearGradient>
<linearGradient id="paint12_linear" x1="5151.56" y1="19645.7" x2="5151.56" y2="11785" gradientUnits="userSpaceOnUse">
<stop stop-color="#808080" stop-opacity="0.25"/>
<stop offset="0.54" stop-color="#808080" stop-opacity="0.12"/>
<stop offset="1" stop-color="#808080" stop-opacity="0.1"/>
</linearGradient>
<linearGradient id="paint13_linear" x1="907.373" y1="3269.92" x2="907.373" y2="2684.42" gradientUnits="userSpaceOnUse">
<stop stop-color="#808080" stop-opacity="0.25"/>
<stop offset="0.54" stop-color="#808080" stop-opacity="0.12"/>
<stop offset="1" stop-color="#808080" stop-opacity="0.1"/>
</linearGradient>
<linearGradient id="paint14_linear" x1="3942.73" y1="20207.5" x2="3942.73" y2="11808.2" gradientUnits="userSpaceOnUse">
<stop stop-color="#808080" stop-opacity="0.25"/>
<stop offset="0.54" stop-color="#808080" stop-opacity="0.12"/>
<stop offset="1" stop-color="#808080" stop-opacity="0.1"/>
</linearGradient>
<linearGradient id="paint15_linear" x1="4561.27" y1="5285.33" x2="4561.27" y2="3845.82" gradientUnits="userSpaceOnUse">
<stop stop-color="#9FBFB8"/>
<stop offset="0.54" stop-color="#808080" stop-opacity="0.12"/>
<stop offset="1" stop-color="#808080" stop-opacity="0.1"/>
</linearGradient>
<linearGradient id="paint16_linear" x1="556.506" y1="151.286" x2="567.613" y2="151.286" gradientUnits="userSpaceOnUse">
<stop stop-color="#808080" stop-opacity="0.25"/>
<stop offset="0.54" stop-color="#808080" stop-opacity="0.12"/>
<stop offset="1" stop-color="#808080" stop-opacity="0.1"/>
</linearGradient>
<linearGradient id="paint17_linear" x1="17464.6" y1="2267.36" x2="17464.6" y2="108.913" gradientUnits="userSpaceOnUse">
<stop stop-color="#808080" stop-opacity="0.25"/>
<stop offset="0.54" stop-color="#808080" stop-opacity="0.12"/>
<stop offset="1" stop-color="#808080" stop-opacity="0.1"/>
</linearGradient>
<linearGradient id="paint18_linear" x1="25376.1" y1="40195.9" x2="25376.1" y2="11467.3" gradientUnits="userSpaceOnUse">
<stop stop-color="#808080" stop-opacity="0.25"/>
<stop offset="0.54" stop-color="#808080" stop-opacity="0.12"/>
<stop offset="1" stop-color="#808080" stop-opacity="0.1"/>
</linearGradient>
<linearGradient id="paint19_linear" x1="1152.58" y1="52644.7" x2="1152.58" y2="17239.3" gradientUnits="userSpaceOnUse">
<stop stop-color="#808080" stop-opacity="0.25"/>
<stop offset="0.54" stop-color="#808080" stop-opacity="0.12"/>
<stop offset="1" stop-color="#808080" stop-opacity="0.1"/>
</linearGradient>
<linearGradient id="paint20_linear" x1="33966.2" y1="34724.9" x2="33966.2" y2="14619.6" gradientUnits="userSpaceOnUse">
<stop stop-color="#808080" stop-opacity="0.25"/>
<stop offset="0.54" stop-color="#808080" stop-opacity="0.12"/>
<stop offset="1" stop-color="#808080" stop-opacity="0.1"/>
</linearGradient>
<linearGradient id="paint21_linear" x1="1855.83" y1="44071.1" x2="1855.83" y2="19129.5" gradientUnits="userSpaceOnUse">
<stop stop-color="#808080" stop-opacity="0.25"/>
<stop offset="0.54" stop-color="#808080" stop-opacity="0.12"/>
<stop offset="1" stop-color="#808080" stop-opacity="0.1"/>
</linearGradient>
<linearGradient id="paint22_linear" x1="74089.1" y1="53768.1" x2="74089.1" y2="27979.6" gradientUnits="userSpaceOnUse">
<stop stop-color="#808080" stop-opacity="0.25"/>
<stop offset="0.54" stop-color="#808080" stop-opacity="0.12"/>
<stop offset="1" stop-color="#808080" stop-opacity="0.1"/>
</linearGradient>
<linearGradient id="paint23_linear" x1="12841.6" y1="7916.3" x2="12841.6" y2="5487.74" gradientUnits="userSpaceOnUse">
<stop stop-color="#808080" stop-opacity="0.25"/>
<stop offset="0.54" stop-color="#808080" stop-opacity="0.12"/>
<stop offset="1" stop-color="#808080" stop-opacity="0.1"/>
</linearGradient>
<linearGradient id="paint24_linear" x1="8256.54" y1="9939.23" x2="8256.54" y2="8041.97" gradientUnits="userSpaceOnUse">
<stop stop-color="#808080" stop-opacity="0.25"/>
<stop offset="0.54" stop-color="#808080" stop-opacity="0.12"/>
<stop offset="1" stop-color="#808080" stop-opacity="0.1"/>
</linearGradient>
<linearGradient id="paint25_linear" x1="14526" y1="9939.23" x2="14526" y2="8041.97" gradientUnits="userSpaceOnUse">
<stop stop-color="#808080" stop-opacity="0.25"/>
<stop offset="0.54" stop-color="#808080" stop-opacity="0.12"/>
<stop offset="1" stop-color="#808080" stop-opacity="0.1"/>
</linearGradient>
<linearGradient id="paint26_linear" x1="69203" y1="25476.9" x2="69203" y2="6056.8" gradientUnits="userSpaceOnUse">
<stop stop-color="#808080" stop-opacity="0.25"/>
<stop offset="0.54" stop-color="#808080" stop-opacity="0.12"/>
<stop offset="1" stop-color="#808080" stop-opacity="0.1"/>
</linearGradient>
<linearGradient id="paint27_linear" x1="13818" y1="22231.5" x2="13818" y2="16929" gradientUnits="userSpaceOnUse">
<stop stop-color="#808080" stop-opacity="0.25"/>
<stop offset="0.54" stop-color="#808080" stop-opacity="0.12"/>
<stop offset="1" stop-color="#808080" stop-opacity="0.1"/>
</linearGradient>
<linearGradient id="paint28_linear" x1="3319.89" y1="3090.22" x2="3319.89" y2="2978.73" gradientUnits="userSpaceOnUse">
<stop stop-color="#808080" stop-opacity="0.25"/>
<stop offset="0.54" stop-color="#808080" stop-opacity="0.12"/>
<stop offset="1" stop-color="#808080" stop-opacity="0.1"/>
</linearGradient>
<linearGradient id="paint29_linear" x1="16612.6" y1="6847.44" x2="16612.6" y2="6401.48" gradientUnits="userSpaceOnUse">
<stop stop-color="#808080" stop-opacity="0.25"/>
<stop offset="0.54" stop-color="#808080" stop-opacity="0.12"/>
<stop offset="1" stop-color="#808080" stop-opacity="0.1"/>
</linearGradient>
<linearGradient id="paint30_linear" x1="14490.6" y1="24154.7" x2="14490.6" y2="18048.8" gradientUnits="userSpaceOnUse">
<stop stop-color="#808080" stop-opacity="0.25"/>
<stop offset="0.54" stop-color="#808080" stop-opacity="0.12"/>
<stop offset="1" stop-color="#808080" stop-opacity="0.1"/>
</linearGradient>
<linearGradient id="paint31_linear" x1="899.833" y1="27315.2" x2="899.833" y2="19792.3" gradientUnits="userSpaceOnUse">
<stop stop-color="#808080" stop-opacity="0.25"/>
<stop offset="0.54" stop-color="#808080" stop-opacity="0.12"/>
<stop offset="1" stop-color="#808080" stop-opacity="0.1"/>
</linearGradient>
<linearGradient id="paint32_linear" x1="15330.1" y1="20473.6" x2="15330.1" y2="16200" gradientUnits="userSpaceOnUse">
<stop stop-color="#808080" stop-opacity="0.25"/>
<stop offset="0.54" stop-color="#808080" stop-opacity="0.12"/>
<stop offset="1" stop-color="#808080" stop-opacity="0.1"/>
</linearGradient>
<linearGradient id="paint33_linear" x1="1094.33" y1="22932.4" x2="1094.33" y2="17632.7" gradientUnits="userSpaceOnUse">
<stop stop-color="#808080" stop-opacity="0.25"/>
<stop offset="0.54" stop-color="#808080" stop-opacity="0.12"/>
<stop offset="1" stop-color="#808080" stop-opacity="0.1"/>
</linearGradient>
<linearGradient id="paint34_linear" x1="813.173" y1="37563.1" x2="813.173" y2="23577.8" gradientUnits="userSpaceOnUse">
<stop stop-color="#808080" stop-opacity="0.25"/>
<stop offset="0.54" stop-color="#808080" stop-opacity="0.12"/>
<stop offset="1" stop-color="#808080" stop-opacity="0.1"/>
</linearGradient>
<linearGradient id="paint35_linear" x1="7952.52" y1="4804.86" x2="7952.52" y2="4378.57" gradientUnits="userSpaceOnUse">
<stop stop-color="#808080" stop-opacity="0.25"/>
<stop offset="0.54" stop-color="#808080" stop-opacity="0.12"/>
<stop offset="1" stop-color="#808080" stop-opacity="0.1"/>
</linearGradient>
<linearGradient id="paint36_linear" x1="567.69" y1="1657.98" x2="567.69" y2="1612.31" gradientUnits="userSpaceOnUse">
<stop stop-color="#808080" stop-opacity="0.25"/>
<stop offset="0.54" stop-color="#808080" stop-opacity="0.12"/>
<stop offset="1" stop-color="#808080" stop-opacity="0.1"/>
</linearGradient>
<linearGradient id="paint37_linear" x1="1253.28" y1="1657.98" x2="1253.28" y2="1612.31" gradientUnits="userSpaceOnUse">
<stop stop-color="#808080" stop-opacity="0.25"/>
<stop offset="0.54" stop-color="#808080" stop-opacity="0.12"/>
<stop offset="1" stop-color="#808080" stop-opacity="0.1"/>
</linearGradient>
<linearGradient id="paint38_linear" x1="2888.41" y1="13249.7" x2="8429.14" y2="13249.7" gradientUnits="userSpaceOnUse">
<stop stop-color="#808080" stop-opacity="0.25"/>
<stop offset="0.54" stop-color="#808080" stop-opacity="0.12"/>
<stop offset="1" stop-color="#808080" stop-opacity="0.1"/>
</linearGradient>
<linearGradient id="paint39_linear" x1="-14552.9" y1="22701.5" x2="-14552.9" y2="17655.2" gradientUnits="userSpaceOnUse">
<stop stop-color="#808080" stop-opacity="0.25"/>
<stop offset="0.54" stop-color="#808080" stop-opacity="0.12"/>
<stop offset="1" stop-color="#808080" stop-opacity="0.1"/>
</linearGradient>
<linearGradient id="paint40_linear" x1="-197.133" y1="27421" x2="-197.133" y2="21202.4" gradientUnits="userSpaceOnUse">
<stop stop-color="#808080" stop-opacity="0.25"/>
<stop offset="0.54" stop-color="#808080" stop-opacity="0.12"/>
<stop offset="1" stop-color="#808080" stop-opacity="0.1"/>
</linearGradient>
<linearGradient id="paint41_linear" x1="-14826" y1="19224.8" x2="-14826" y2="15691.7" gradientUnits="userSpaceOnUse">
<stop stop-color="#808080" stop-opacity="0.25"/>
<stop offset="0.54" stop-color="#808080" stop-opacity="0.12"/>
<stop offset="1" stop-color="#808080" stop-opacity="0.1"/>
</linearGradient>
<linearGradient id="paint42_linear" x1="-385.279" y1="23026.1" x2="-385.279" y2="18645.4" gradientUnits="userSpaceOnUse">
<stop stop-color="#808080" stop-opacity="0.25"/>
<stop offset="0.54" stop-color="#808080" stop-opacity="0.12"/>
<stop offset="1" stop-color="#808080" stop-opacity="0.1"/>
</linearGradient>
<linearGradient id="paint43_linear" x1="4883.56" y1="19647.7" x2="4883.56" y2="11787" gradientUnits="userSpaceOnUse">
<stop stop-color="#808080" stop-opacity="0.25"/>
<stop offset="0.54" stop-color="#808080" stop-opacity="0.12"/>
<stop offset="1" stop-color="#808080" stop-opacity="0.1"/>
</linearGradient>
<linearGradient id="paint44_linear" x1="639.375" y1="3271.92" x2="639.375" y2="2686.42" gradientUnits="userSpaceOnUse">
<stop stop-color="#808080" stop-opacity="0.25"/>
<stop offset="0.54" stop-color="#808080" stop-opacity="0.12"/>
<stop offset="1" stop-color="#808080" stop-opacity="0.1"/>
</linearGradient>
<linearGradient id="paint45_linear" x1="3674.73" y1="20209.5" x2="3674.73" y2="11810.2" gradientUnits="userSpaceOnUse">
<stop stop-color="#808080" stop-opacity="0.25"/>
<stop offset="0.54" stop-color="#808080" stop-opacity="0.12"/>
<stop offset="1" stop-color="#808080" stop-opacity="0.1"/>
</linearGradient>
<linearGradient id="paint46_linear" x1="4293.27" y1="5287.33" x2="4293.27" y2="3847.82" gradientUnits="userSpaceOnUse">
<stop stop-color="#808080" stop-opacity="0.25"/>
<stop offset="0.54" stop-color="#808080" stop-opacity="0.12"/>
<stop offset="1" stop-color="#808080" stop-opacity="0.1"/>
</linearGradient>
<linearGradient id="paint47_linear" x1="73558.3" y1="30240.6" x2="73558.3" y2="8941.72" gradientUnits="userSpaceOnUse">
<stop stop-color="#808080" stop-opacity="0.25"/>
<stop offset="0.54" stop-color="#808080" stop-opacity="0.12"/>
<stop offset="1" stop-color="#808080" stop-opacity="0.1"/>
</linearGradient>
<linearGradient id="paint48_linear" x1="5332.59" y1="827.106" x2="5332.59" y2="172.624" gradientUnits="userSpaceOnUse">
<stop stop-color="#808080" stop-opacity="0.25"/>
<stop offset="0.54" stop-color="#808080" stop-opacity="0.12"/>
<stop offset="1" stop-color="#808080" stop-opacity="0.1"/>
</linearGradient>
<linearGradient id="paint49_linear" x1="24206.9" y1="2715.01" x2="24206.9" y2="1785.65" gradientUnits="userSpaceOnUse">
<stop stop-color="#808080" stop-opacity="0.25"/>
<stop offset="0.54" stop-color="#808080" stop-opacity="0.12"/>
<stop offset="1" stop-color="#808080" stop-opacity="0.1"/>
</linearGradient>
<linearGradient id="paint50_linear" x1="30980.2" y1="2766.82" x2="30980.2" y2="1815.89" gradientUnits="userSpaceOnUse">
<stop stop-color="#808080" stop-opacity="0.25"/>
<stop offset="0.54" stop-color="#808080" stop-opacity="0.12"/>
<stop offset="1" stop-color="#808080" stop-opacity="0.1"/>
</linearGradient>
<linearGradient id="paint51_linear" x1="38040.8" y1="1695.6" x2="38040.8" y2="87" gradientUnits="userSpaceOnUse">
<stop stop-color="#808080" stop-opacity="0.25"/>
<stop offset="0.54" stop-color="#808080" stop-opacity="0.12"/>
<stop offset="1" stop-color="#808080" stop-opacity="0.1"/>
</linearGradient>
<linearGradient id="paint52_linear" x1="32605.2" y1="35247.5" x2="32605.2" y2="5947.41" gradientUnits="userSpaceOnUse">
<stop stop-color="#808080" stop-opacity="0.25"/>
<stop offset="0.54" stop-color="#808080" stop-opacity="0.12"/>
<stop offset="1" stop-color="#808080" stop-opacity="0.1"/>
</linearGradient>
<linearGradient id="paint53_linear" x1="129.271" y1="239.294" x2="129.271" y2="163.111" gradientUnits="userSpaceOnUse">
<stop stop-color="#808080" stop-opacity="0.25"/>
<stop offset="0.54" stop-color="#808080" stop-opacity="0.12"/>
<stop offset="1" stop-color="#808080" stop-opacity="0.1"/>
</linearGradient>
<linearGradient id="paint54_linear" x1="2591.71" y1="2738.63" x2="2591.71" y2="1836.35" gradientUnits="userSpaceOnUse">
<stop stop-color="#808080" stop-opacity="0.25"/>
<stop offset="0.54" stop-color="#808080" stop-opacity="0.12"/>
<stop offset="1" stop-color="#808080" stop-opacity="0.1"/>
</linearGradient>
<linearGradient id="paint55_linear" x1="10213.3" y1="4750.02" x2="10213.3" y2="3468.54" gradientUnits="userSpaceOnUse">
<stop stop-color="#808080" stop-opacity="0.25"/>
<stop offset="0.54" stop-color="#808080" stop-opacity="0.12"/>
<stop offset="1" stop-color="#808080" stop-opacity="0.1"/>
</linearGradient>
<linearGradient id="paint56_linear" x1="18774.8" y1="4802.34" x2="18774.8" y2="3491.28" gradientUnits="userSpaceOnUse">
<stop stop-color="#808080" stop-opacity="0.25"/>
<stop offset="0.54" stop-color="#808080" stop-opacity="0.12"/>
<stop offset="1" stop-color="#808080" stop-opacity="0.1"/>
</linearGradient>
<linearGradient id="paint57_linear" x1="20017.5" y1="4590.1" x2="20017.5" y2="2371.89" gradientUnits="userSpaceOnUse">
<stop stop-color="#C6F1E7" stop-opacity="0.25"/>
<stop offset="0.54" stop-color="#808080" stop-opacity="0.12"/>
<stop offset="1" stop-color="#808080" stop-opacity="0.1"/>
</linearGradient>
<linearGradient id="paint58_linear" x1="17107.3" y1="22669.5" x2="17107.3" y2="9725.29" gradientUnits="userSpaceOnUse">
<stop stop-color="#808080" stop-opacity="0.25"/>
<stop offset="0.54" stop-color="#808080" stop-opacity="0.12"/>
<stop offset="1" stop-color="#808080" stop-opacity="0.1"/>
</linearGradient>
<clipPath id="clip0">
<rect width="1013" height="237" fill="white"/>
</clipPath>
</defs>
</svg>
