<svg width="2000" height="500" viewBox="0 0 2000 500" fill="none" xmlns="http://www.w3.org/2000/svg">
<g clip-path="url(#clip0)">
<g opacity="0.7">
<path opacity="0.7" d="M1589.04 506.465H1392.09L1393.45 301.545L1449.78 280.834H1529.42L1587.68 295.506L1589.04 506.465Z" fill="url(#paint0_linear)"/>
</g>
<path d="M1586.32 503.882H1394.82L1396.18 304.128L1449.96 283.429H1530.38L1584.95 298.089L1586.32 503.882Z" fill="#EEEEEE"/>
<g opacity="0.7">
<path opacity="0.7" d="M1468.23 192.53H1453.85V232.082H1468.23V192.53Z" fill="url(#paint1_linear)"/>
</g>
<g opacity="0.7">
<path opacity="0.7" d="M1453.85 314.37V271.623H1391.43L1380.83 314.37V318.755H1454.24V314.37H1453.85Z" fill="url(#paint2_linear)"/>
</g>
<path d="M1453.85 314.427H1381.61L1392.09 272.167H1453.85V314.427Z" fill="#6C63FF"/>
<path opacity="0.1" d="M1453.85 314.427H1381.61L1392.09 272.167H1453.85V314.427Z" fill="black"/>
<path d="M1454.25 314.427H1381.61V318.766H1454.25V314.427Z" fill="#6C63FF"/>
<g opacity="0.7">
<path opacity="0.7" d="M1588.32 272.167H1525.73V315.401H1525.33V319.842H1598.94V315.401L1588.32 272.167Z" fill="url(#paint3_linear)"/>
</g>
<path d="M1525.72 315.503H1597.98L1587.49 273.255H1525.72V315.503Z" fill="#6C63FF"/>
<path opacity="0.1" d="M1525.72 315.503H1597.98L1587.49 273.255H1525.72V315.503Z" fill="black"/>
<path d="M1525.33 319.842H1597.98V315.503H1525.33V319.842Z" fill="#6C63FF"/>
<path opacity="0.5" d="M1440.26 430.081H1401.02V464.206H1440.26V430.081Z" fill="#6C63FF"/>
<path opacity="0.1" d="M1442.59 461.77H1398.7V467.729H1442.59V461.77Z" fill="black"/>
<path d="M1442.59 461.237H1398.7V467.197H1442.59V461.237Z" fill="#535461"/>
<g opacity="0.1">
<path opacity="0.1" d="M1440.26 430.081H1401.02V443.62H1440.26V430.081Z" fill="black"/>
</g>
<path opacity="0.5" d="M1578.94 430.081H1539.71V464.206H1578.94V430.081Z" fill="#6C63FF"/>
<path opacity="0.1" d="M1581.27 461.77H1537.38V467.729H1581.27V461.77Z" fill="black"/>
<path d="M1581.27 461.237H1537.38V467.197H1581.27V461.237Z" fill="#535461"/>
<g opacity="0.1">
<path opacity="0.1" d="M1578.94 430.081H1539.71V443.62H1578.94V430.081Z" fill="black"/>
</g>
<path opacity="0.5" d="M1578.94 350.444H1539.71V384.569H1578.94V350.444Z" fill="#6C63FF"/>
<path opacity="0.1" d="M1581.27 382.145H1537.38V388.104H1581.27V382.145Z" fill="black"/>
<path d="M1581.27 381.601H1537.38V387.56H1581.27V381.601Z" fill="#535461"/>
<g opacity="0.1">
<path opacity="0.1" d="M1578.94 350.444H1539.71V363.983H1578.94V350.444Z" fill="black"/>
</g>
<path opacity="0.5" d="M1441.43 350.444H1402.19V384.569H1441.43V350.444Z" fill="#6C63FF"/>
<path opacity="0.1" d="M1443.76 382.145H1399.86V388.104H1443.76V382.145Z" fill="black"/>
<path d="M1443.76 381.601H1399.86V387.56H1443.76V381.601Z" fill="#535461"/>
<g opacity="0.1">
<path opacity="0.1" d="M1441.43 350.444H1402.19V363.983H1441.43V350.444Z" fill="black"/>
</g>
<g opacity="0.7">
<path opacity="0.7" d="M1537.83 249.508L1489.92 197.833L1443.54 249.474L1439.9 243.129L1489.86 187.5L1541.39 243.084L1537.83 249.508Z" fill="url(#paint4_linear)"/>
</g>
<path opacity="0.1" d="M1447.45 318.755H1395.78V319.57H1447.45V318.755Z" fill="black"/>
<path opacity="0.1" d="M1585.35 319.842H1533.11V320.658H1585.35V319.842Z" fill="black"/>
<path d="M1467.84 193.074H1454.24V232.082H1467.84V193.074Z" fill="#535461"/>
<g opacity="0.7">
<path opacity="0.7" d="M1533.3 504.845H1446.28V242.597L1490.17 240.206L1533.3 242.597V504.845Z" fill="url(#paint5_linear)"/>
</g>
<path d="M1532.13 504.845H1447.44V241.554L1489.79 197.142L1532.91 243.186L1532.13 504.845Z" fill="white"/>
<path d="M1500.47 455.006H1479.1V504.845H1500.47V455.006Z" fill="#535461"/>
<path opacity="0.1" d="M1511.74 410.31H1467.84V416.27H1511.74V410.31Z" fill="black"/>
<path opacity="0.5" d="M1509.41 378.621H1470.18V412.746H1509.41V378.621Z" fill="#6C63FF"/>
<path d="M1511.74 409.766H1467.84V415.726H1511.74V409.766Z" fill="#535461"/>
<g opacity="0.1">
<path opacity="0.1" d="M1509.41 378.621H1470.18V392.16H1509.41V378.621Z" fill="black"/>
</g>
<path opacity="0.5" d="M1509.41 311.719H1470.18V345.844H1509.41V311.719Z" fill="#6C63FF"/>
<path d="M1511.74 342.864H1467.84V348.824H1511.74V342.864Z" fill="#535461"/>
<g opacity="0.1">
<path opacity="0.1" d="M1509.41 311.719H1470.18V325.258H1509.41V311.719Z" fill="black"/>
</g>
<path opacity="0.5" d="M1509.41 244.806H1470.18V278.931H1509.41V244.806Z" fill="#6C63FF"/>
<path d="M1511.74 275.962H1467.84V281.922H1511.74V275.962Z" fill="#535461"/>
<g opacity="0.1">
<path opacity="0.1" d="M1509.41 244.806H1470.18V258.345H1509.41V244.806Z" fill="black"/>
</g>
<path d="M1537.83 251.411L1489.92 199.725L1443.54 251.366L1439.9 245.021L1489.86 189.392L1541.39 244.976L1537.83 251.411Z" fill="#6C63FF"/>
<path d="M1497.37 482.084C1498.23 482.084 1498.92 481.115 1498.92 479.92C1498.92 478.725 1498.23 477.756 1497.37 477.756C1496.51 477.756 1495.82 478.725 1495.82 479.92C1495.82 481.115 1496.51 482.084 1497.37 482.084Z" fill="#E0E0E0"/>
<g opacity="0.7">
<path opacity="0.7" d="M788.039 356.541H650.836V502.026H788.039V356.541Z" fill="url(#paint6_linear)"/>
</g>
<path d="M786.591 358.162H653.185V500.379H786.591V358.162Z" fill="#EEEEEE"/>
<g opacity="0.7">
<path opacity="0.7" d="M695.084 313.568H678.545V353.274H695.084V313.568Z" fill="url(#paint7_linear)"/>
</g>
<path d="M694.633 314.117H678.996V353.274H694.633V314.117Z" fill="#535461"/>
<g opacity="0.7">
<path opacity="0.7" d="M769.716 500.392H669.609V351.372L720.098 350.006L769.716 351.372V500.392Z" fill="url(#paint8_linear)"/>
</g>
<path d="M768.605 500.392H671.172V351.372L719.888 309.216L768.605 351.372V500.392Z" fill="white"/>
<path d="M732.18 450.349H707.596V500.38H732.18V450.349Z" fill="#535461"/>
<path opacity="0.5" d="M742.458 373.669H697.318V407.937H742.458V373.669Z" fill="#6C63FF"/>
<path d="M745.133 404.938H694.633V410.924H745.133V404.938Z" fill="#535461"/>
<path d="M775.149 364.518L720.024 312.637L666.672 364.48L662.488 358.111L719.962 302.26L779.25 358.073L775.149 364.518Z" fill="#6C63FF"/>
<path opacity="0.7" d="M775.149 363.982L720.024 312.1L666.672 363.944L662.488 357.562L719.962 301.724L779.25 357.524L775.149 363.982Z" fill="url(#paint9_linear)"/>
<path opacity="0.1" d="M742.458 373.669H697.318V387.261H742.458V373.669Z" fill="black"/>
<path d="M724.186 483.621C725.838 483.621 727.177 481.98 727.177 479.957C727.177 477.934 725.838 476.293 724.186 476.293C722.535 476.293 721.196 477.934 721.196 479.957C721.196 481.98 722.535 483.621 724.186 483.621Z" fill="#EEEEEE"/>
<g opacity="0.7">
<path opacity="0.7" d="M1349.16 356.541H1211.96V502.026H1349.16V356.541Z" fill="url(#paint10_linear)"/>
</g>
<path d="M1347.72 358.162H1214.31V500.38H1347.72V358.162Z" fill="#EEEEEE"/>
<g opacity="0.7">
<path opacity="0.7" d="M1256.21 313.568H1239.67V353.274H1256.21V313.568Z" fill="url(#paint11_linear)"/>
</g>
<path d="M1255.76 314.117H1240.12V353.273H1255.76V314.117Z" fill="#535461"/>
<g opacity="0.7">
<path opacity="0.7" d="M1330.84 500.392H1230.73V351.372L1281.22 350.006L1330.84 351.372V500.392Z" fill="url(#paint12_linear)"/>
</g>
<path d="M1329.73 500.392H1232.3V351.372L1281.01 309.216L1329.73 351.372V500.392Z" fill="white"/>
<path d="M1293.31 450.349H1268.72V500.379H1293.31V450.349Z" fill="#535461"/>
<path opacity="0.5" d="M1303.58 373.669H1258.44V407.937H1303.58V373.669Z" fill="#6C63FF"/>
<path d="M1306.26 404.938H1255.76V410.924H1306.26V404.938Z" fill="#535461"/>
<path d="M1336.27 364.518L1281.15 312.637L1227.8 364.48L1223.61 358.111L1281.09 302.26L1340.38 358.073L1336.27 364.518Z" fill="#6C63FF"/>
<path d="M1285.31 483.621C1286.96 483.621 1288.3 481.98 1288.3 479.957C1288.3 477.934 1286.96 476.293 1285.31 476.293C1283.66 476.293 1282.32 477.934 1282.32 479.957C1282.32 481.98 1283.66 483.621 1285.31 483.621Z" fill="#E0E0E0"/>
<path opacity="0.1" d="M1303.58 373.669H1258.44V387.261H1303.58V373.669Z" fill="black"/>
<path opacity="0.7" d="M1336.27 363.982L1281.15 312.1L1227.8 363.944L1223.61 357.562L1281.09 301.724L1340.38 357.524L1336.27 363.982Z" fill="url(#paint13_linear)"/>
<g opacity="0.7">
<path opacity="0.7" d="M609.27 504.31H412.324L413.68 299.39L470.005 278.679H549.647L607.913 293.351L609.27 504.31Z" fill="url(#paint14_linear)"/>
</g>
<path d="M606.548 501.727H415.045L416.41 301.973L470.192 281.274H550.613L605.183 295.934L606.548 501.727Z" fill="#EEEEEE"/>
<g opacity="0.7">
<path opacity="0.7" d="M488.455 190.375H474.084V229.927H488.455V190.375Z" fill="url(#paint15_linear)"/>
</g>
<g opacity="0.7">
<path opacity="0.7" d="M474.084 312.215V269.468H411.657L401.055 312.215V316.6H474.474V312.215H474.084Z" fill="url(#paint16_linear)"/>
</g>
<path d="M474.084 312.272H401.835L412.324 270.012H474.084V312.272Z" fill="#6C63FF"/>
<path opacity="0.1" d="M474.084 312.272H401.835L412.324 270.012H474.084V312.272Z" fill="black"/>
<path d="M474.482 312.272H401.835V316.611H474.482V312.272Z" fill="#6C63FF"/>
<g opacity="0.7">
<path opacity="0.7" d="M608.547 270.012H545.958V313.246H545.56V317.687H619.173V313.246L608.547 270.012Z" fill="url(#paint17_linear)"/>
</g>
<path d="M545.95 313.348H618.206L607.718 271.099H545.95V313.348Z" fill="#6C63FF"/>
<path opacity="0.1" d="M545.95 313.348H618.206L607.718 271.099H545.95V313.348Z" fill="black"/>
<path d="M545.56 317.687H618.206V313.348H545.56V317.687Z" fill="#6C63FF"/>
<path opacity="0.5" d="M460.484 427.925H421.252V462.05H460.484V427.925Z" fill="#6C63FF"/>
<path opacity="0.1" d="M462.823 459.615H418.928V465.574H462.823V459.615Z" fill="black"/>
<path d="M462.823 459.082H418.928V465.042H462.823V459.082Z" fill="#535461"/>
<g opacity="0.1">
<path opacity="0.1" d="M460.484 427.925H421.252V441.464H460.484V427.925Z" fill="black"/>
</g>
<path opacity="0.5" d="M599.172 427.925H559.94V462.05H599.172V427.925Z" fill="#6C63FF"/>
<path opacity="0.1" d="M601.503 459.615H557.608V465.574H601.503V459.615Z" fill="black"/>
<path d="M601.503 459.082H557.608V465.042H601.503V459.082Z" fill="#535461"/>
<g opacity="0.1">
<path opacity="0.1" d="M599.172 427.925H559.94V441.464H599.172V427.925Z" fill="black"/>
</g>
<path opacity="0.5" d="M599.172 348.289H559.94V382.414H599.172V348.289Z" fill="#6C63FF"/>
<path opacity="0.1" d="M601.503 379.99H557.608V385.949H601.503V379.99Z" fill="black"/>
<path d="M601.503 379.446H557.608V385.405H601.503V379.446Z" fill="#535461"/>
<g opacity="0.1">
<path opacity="0.1" d="M599.172 348.289H559.94V361.828H599.172V348.289Z" fill="black"/>
</g>
<path opacity="0.5" d="M461.654 348.289H422.422V382.414H461.654V348.289Z" fill="#6C63FF"/>
<path opacity="0.1" d="M463.985 379.99H420.09V385.949H463.985V379.99Z" fill="black"/>
<path d="M463.985 379.446H420.09V385.405H463.985V379.446Z" fill="#535461"/>
<g opacity="0.1">
<path opacity="0.1" d="M461.654 348.289H422.422V361.828H461.654V348.289Z" fill="black"/>
</g>
<g opacity="0.7">
<path opacity="0.7" d="M558.055 247.352L510.147 195.678L463.766 247.318L460.126 240.974L510.09 185.345L561.622 240.928L558.055 247.352Z" fill="url(#paint18_linear)"/>
</g>
<path opacity="0.1" d="M467.674 316.6H416.012V317.415H467.674V316.6Z" fill="black"/>
<path opacity="0.1" d="M605.582 317.687H553.335V318.503H605.582V317.687Z" fill="black"/>
<path d="M488.074 190.919H474.474V229.927H488.074V190.919Z" fill="#535461"/>
<g opacity="0.7">
<path opacity="0.7" d="M553.53 502.69H466.512V240.441L510.399 238.051L553.53 240.441V502.69Z" fill="url(#paint19_linear)"/>
</g>
<path d="M552.36 502.69H467.674V239.399L510.017 194.986L553.14 241.03L552.36 502.69Z" fill="white"/>
<path d="M520.7 452.851H499.334V502.69H520.7V452.851Z" fill="#535461"/>
<path opacity="0.1" d="M531.968 408.155H488.074V414.114H531.968V408.155Z" fill="black"/>
<path opacity="0.5" d="M529.637 376.466H490.405V410.591H529.637V376.466Z" fill="#6C63FF"/>
<path d="M531.968 407.611H488.074V413.571H531.968V407.611Z" fill="#535461"/>
<g opacity="0.1">
<path opacity="0.1" d="M529.637 376.466H490.405V390.005H529.637V376.466Z" fill="black"/>
</g>
<path opacity="0.5" d="M529.637 309.564H490.405V343.689H529.637V309.564Z" fill="#6C63FF"/>
<path d="M531.968 340.709H488.074V346.669H531.968V340.709Z" fill="#535461"/>
<g opacity="0.1">
<path opacity="0.1" d="M529.637 309.564H490.405V323.103H529.637V309.564Z" fill="black"/>
</g>
<path opacity="0.5" d="M529.637 242.65H490.405V276.775H529.637V242.65Z" fill="#6C63FF"/>
<path d="M531.968 273.807H488.074V279.767H531.968V273.807Z" fill="#535461"/>
<g opacity="0.1">
<path opacity="0.1" d="M529.637 242.65H490.405V256.189H529.637V242.65Z" fill="black"/>
</g>
<path d="M558.055 249.256L510.147 197.57L463.766 249.211L460.126 242.866L510.09 187.237L561.622 242.821L558.055 249.256Z" fill="#6C63FF"/>
<path d="M517.597 479.929C518.454 479.929 519.148 478.96 519.148 477.765C519.148 476.57 518.454 475.601 517.597 475.601C516.74 475.601 516.045 476.57 516.045 477.765C516.045 478.96 516.74 479.929 517.597 479.929Z" fill="#E0E0E0"/>
<g opacity="0.7">
<path opacity="0.7" d="M1848.89 502.22H1642.41L1643.84 356.25L1702.89 341.497H1786.38L1847.46 351.946L1848.89 502.22Z" fill="url(#paint20_linear)"/>
</g>
<path d="M1846.04 500.38H1645.27L1646.7 358.09L1703.08 343.337H1787.4L1844.61 353.786L1846.04 500.38Z" fill="#EEEEEE"/>
<g opacity="0.7">
<path opacity="0.7" d="M1722.24 289.251H1707.17V334.125H1722.24V289.251Z" fill="url(#paint21_linear)"/>
</g>
<g opacity="0.7">
<path opacity="0.7" d="M1707.16 391.225V342.723H1641.72L1630.61 391.225V396.196H1707.58V391.225H1707.16Z" fill="url(#paint22_linear)"/>
</g>
<path d="M1707.17 391.278H1631.42L1642.41 343.337H1707.17V391.278Z" fill="#6C63FF"/>
<path opacity="0.1" d="M1707.17 391.278H1631.42L1642.41 343.337H1707.17V391.278Z" fill="black"/>
<path d="M1707.58 391.278H1631.42V396.196H1707.58V391.278Z" fill="#6C63FF"/>
<g opacity="0.7">
<path opacity="0.7" d="M1848.13 342.11H1782.51V391.161H1782.1V396.196H1859.28V391.161L1848.13 342.11Z" fill="url(#paint23_linear)"/>
</g>
<path d="M1782.51 391.278H1858.26L1847.26 343.337H1782.51V391.278Z" fill="#6C63FF"/>
<path opacity="0.1" d="M1782.51 391.278H1858.26L1847.26 343.337H1782.51V391.278Z" fill="black"/>
<path d="M1782.1 396.196H1858.26V391.278H1782.1V396.196Z" fill="#6C63FF"/>
<path opacity="0.5" d="M1692.92 415.56H1651.78V454.279H1692.92V415.56Z" fill="#6C63FF"/>
<path opacity="0.1" d="M1695.36 451.519H1649.34V458.277H1695.36V451.519Z" fill="black"/>
<path d="M1695.36 450.905H1649.34V457.663H1695.36V450.905Z" fill="#535461"/>
<g opacity="0.1">
<path opacity="0.1" d="M1692.92 415.56H1651.78V430.927H1692.92V415.56Z" fill="black"/>
</g>
<path opacity="0.5" d="M1838.31 415.56H1797.17V454.279H1838.31V415.56Z" fill="#6C63FF"/>
<path opacity="0.1" d="M1840.74 451.519H1794.73V458.277H1840.74V451.519Z" fill="black"/>
<path d="M1840.74 450.905H1794.73V457.663H1840.74V450.905Z" fill="#535461"/>
<g opacity="0.1">
<path opacity="0.1" d="M1838.31 415.56H1797.17V430.927H1838.31V415.56Z" fill="black"/>
</g>
<g opacity="0.7">
<path opacity="0.7" d="M1795.2 346.214L1744.97 287.58L1696.35 346.171L1692.54 338.969L1744.91 275.862L1798.94 338.927L1795.2 346.214Z" fill="url(#paint24_linear)"/>
</g>
<path opacity="0.1" d="M1700.45 396.196H1646.28V397.116H1700.45V396.196Z" fill="black"/>
<path opacity="0.1" d="M1845.03 396.196H1790.25V397.116H1845.03V396.196Z" fill="black"/>
<path d="M1721.83 289.865H1707.58V334.115H1721.83V289.865Z" fill="#535461"/>
<g opacity="0.7">
<path opacity="0.7" d="M1790.25 500.38H1699.03V331.968L1745.03 330.434L1790.25 331.968V500.38Z" fill="url(#paint25_linear)"/>
</g>
<path d="M1789.23 500.38H1700.45V331.968L1744.84 284.333L1789.23 331.968V500.38Z" fill="white"/>
<path d="M1756.03 443.83H1733.64V500.38H1756.03V443.83Z" fill="#535461"/>
<path opacity="0.1" d="M1767.85 393.129H1721.83V399.887H1767.85V393.129Z" fill="black"/>
<path opacity="0.5" d="M1765.41 357.17H1724.27V395.889H1765.41V357.17Z" fill="#6C63FF"/>
<path d="M1767.85 392.515H1721.83V399.273H1767.85V392.515Z" fill="#535461"/>
<g opacity="0.1">
<path opacity="0.1" d="M1765.41 357.17H1724.27V372.537H1765.41V357.17Z" fill="black"/>
</g>
<path d="M1795.2 346.827L1744.97 288.194L1696.35 346.785L1692.54 339.582L1744.91 276.475L1798.94 339.54L1795.2 346.827Z" fill="#6C63FF"/>
<path d="M1752.78 474.564C1753.68 474.564 1754.41 473.465 1754.41 472.11C1754.41 470.755 1753.68 469.656 1752.78 469.656C1751.88 469.656 1751.15 470.755 1751.15 472.11C1751.15 473.465 1751.88 474.564 1752.78 474.564Z" fill="#E0E0E0"/>
<g opacity="0.7">
<path opacity="0.7" d="M359.008 504.375H152.529L153.958 358.405L213.009 343.652H296.495L357.579 354.101L359.008 504.375Z" fill="url(#paint26_linear)"/>
</g>
<path d="M356.149 502.535H155.388L156.817 360.246L213.199 345.492H297.511L354.72 355.941L356.149 502.535Z" fill="#EEEEEE"/>
<g opacity="0.7">
<path opacity="0.7" d="M232.35 291.407H217.284V336.281H232.35V291.407Z" fill="url(#paint27_linear)"/>
</g>
<g opacity="0.7">
<path opacity="0.7" d="M217.277 393.38V344.879H151.835L140.721 393.38V398.351H217.69V393.38H217.277Z" fill="url(#paint28_linear)"/>
</g>
<path d="M217.284 393.433H141.534L152.529 345.492H217.284V393.433Z" fill="#6C63FF"/>
<path opacity="0.1" d="M217.284 393.433H141.534L152.529 345.492H217.284V393.433Z" fill="black"/>
<path d="M217.69 393.433H141.534V398.351H217.69V393.433Z" fill="#6C63FF"/>
<g opacity="0.7">
<path opacity="0.7" d="M358.244 344.265H292.627V393.317H292.214V398.351H369.393V393.317L358.244 344.265Z" fill="url(#paint29_linear)"/>
</g>
<path d="M292.62 393.433H368.37L357.375 345.492H292.62V393.433Z" fill="#6C63FF"/>
<path opacity="0.1" d="M292.62 393.433H368.37L357.375 345.492H292.62V393.433Z" fill="black"/>
<path d="M292.214 398.351H368.37V393.433H292.214V398.351Z" fill="#6C63FF"/>
<path opacity="0.5" d="M203.031 417.715H161.897V456.434H203.031V417.715Z" fill="#6C63FF"/>
<path opacity="0.1" d="M205.469 453.674H159.452V460.432H205.469V453.674Z" fill="black"/>
<path d="M205.469 453.06H159.452V459.818H205.469V453.06Z" fill="#535461"/>
<g opacity="0.1">
<path opacity="0.1" d="M203.031 417.715H161.897V433.082H203.031V417.715Z" fill="black"/>
</g>
<path opacity="0.5" d="M348.42 417.715H307.287V456.434H348.42V417.715Z" fill="#6C63FF"/>
<path opacity="0.1" d="M350.859 453.674H304.841V460.432H350.859V453.674Z" fill="black"/>
<path d="M350.859 453.06H304.841V459.818H350.859V453.06Z" fill="#535461"/>
<g opacity="0.1">
<path opacity="0.1" d="M348.42 417.715H307.287V433.082H348.42V417.715Z" fill="black"/>
</g>
<g opacity="0.7">
<path opacity="0.7" d="M305.318 348.369L255.082 289.736L206.464 348.326L202.652 341.124L255.026 278.017L309.053 341.082L305.318 348.369Z" fill="url(#paint30_linear)"/>
</g>
<path opacity="0.1" d="M210.564 398.351H156.397V399.271H210.564V398.351Z" fill="black"/>
<path opacity="0.1" d="M355.14 398.351H300.363V399.271H355.14V398.351Z" fill="black"/>
<path d="M231.943 292.02H217.69V336.27H231.943V292.02Z" fill="#535461"/>
<g opacity="0.7">
<path opacity="0.7" d="M300.363 502.535H209.141V334.123L255.145 332.589L300.363 334.123V502.535Z" fill="url(#paint31_linear)"/>
</g>
<path d="M299.34 502.535H210.564V334.123L254.956 286.489L299.34 334.123V502.535Z" fill="white"/>
<path d="M266.146 445.985H243.751V502.535H266.146V445.985Z" fill="#535461"/>
<path opacity="0.1" d="M277.961 395.284H231.943V402.042H277.961V395.284Z" fill="black"/>
<path opacity="0.5" d="M275.522 359.325H234.389V398.044H275.522V359.325Z" fill="#6C63FF"/>
<path d="M277.961 394.671H231.943V401.429H277.961V394.671Z" fill="#535461"/>
<g opacity="0.1">
<path opacity="0.1" d="M275.522 359.325H234.389V374.692H275.522V359.325Z" fill="black"/>
</g>
<path d="M305.318 348.982L255.082 290.349L206.464 348.94L202.652 341.737L255.026 278.631L309.053 341.695L305.318 348.982Z" fill="#6C63FF"/>
<path d="M262.895 476.719C263.793 476.719 264.521 475.62 264.521 474.265C264.521 472.91 263.793 471.812 262.895 471.812C261.997 471.812 261.269 472.91 261.269 474.265C261.269 475.62 261.997 476.719 262.895 476.719Z" fill="#E0E0E0"/>
<path d="M1098.73 320.998V296.009H1120.66V342.325L1098.73 320.998Z" fill="url(#paint32_linear)"/>
<path d="M1101.33 322.729V300.901H1117.68V342.324L1101.33 322.729Z" fill="#6C63FF"/>
<path d="M1138.5 271.171C1149.79 271.171 1158.94 261.903 1158.94 250.472C1158.94 239.04 1149.79 229.773 1138.5 229.773C1127.21 229.773 1118.06 239.04 1118.06 250.472C1118.06 261.903 1127.21 271.171 1138.5 271.171Z" fill="url(#paint33_linear)"/>
<path d="M1138.5 267.031C1147.53 267.031 1154.85 259.617 1154.85 250.472C1154.85 241.327 1147.53 233.913 1138.5 233.913C1129.47 233.913 1122.15 241.327 1122.15 250.472C1122.15 259.617 1129.47 267.031 1138.5 267.031Z" fill="#FF9800"/>
<path d="M963.616 344.733C966.633 341.238 968.875 337.128 970.189 332.68C971.503 328.232 971.858 323.551 971.232 318.952C970.605 314.353 969.01 309.944 966.555 306.023C964.101 302.102 960.843 298.76 957.003 296.223C958.988 293.111 960.042 289.484 960.036 285.78C960.036 275.303 951.833 266.809 941.716 266.809C933.382 266.809 926.357 272.578 924.138 280.466C919.355 272.281 910.676 266.809 900.763 266.809C885.683 266.809 873.462 279.465 873.462 295.079C873.459 298.405 874.025 301.707 875.135 304.838C874.581 304.792 874.02 304.751 873.462 304.751C861.36 304.751 851.533 314.912 851.533 327.444C851.533 328.216 851.57 328.98 851.644 329.736C846.721 331.974 842.546 335.613 839.627 340.209C836.707 344.804 835.17 350.16 835.2 355.624C835.2 371.186 847.384 383.804 862.412 383.804C863.991 383.802 865.567 383.659 867.121 383.375C867.039 384.312 866.991 385.257 866.991 386.224C866.991 403.686 880.662 417.836 897.525 417.836C903.761 417.835 909.84 415.862 914.913 412.191C918.995 415.823 924.242 417.83 929.677 417.836C942.273 417.836 952.487 407.261 952.487 394.214C952.487 393.649 952.443 393.085 952.405 392.539H952.487C965.979 392.539 976.915 381.215 976.915 367.246C976.936 362.622 975.708 358.081 973.364 354.113C971.02 350.145 967.649 346.901 963.616 344.733V344.733Z" fill="url(#paint34_linear)"/>
<path d="M960.088 344.583C962.922 341.302 965.026 337.444 966.26 333.268C967.494 329.093 967.828 324.698 967.239 320.381C966.651 316.064 965.153 311.925 962.849 308.244C960.544 304.564 957.486 301.427 953.881 299.046C955.742 296.13 956.731 292.732 956.728 289.261C956.728 279.427 949.03 271.453 939.53 271.453C931.725 271.453 925.116 276.868 923.031 284.271C920.794 280.386 917.595 277.159 913.748 274.911C909.902 272.663 905.542 271.471 901.101 271.453C886.947 271.453 875.473 283.334 875.473 297.988C875.469 301.11 876 304.21 877.042 307.148C876.521 307.107 876.001 307.066 875.473 307.066C864.099 307.062 854.9 316.594 854.9 328.374C854.9 329.1 854.937 329.815 855.004 330.523C850.381 332.622 846.459 336.036 843.717 340.35C840.974 344.664 839.529 349.692 839.557 354.823C839.557 369.432 850.994 381.272 865.099 381.272C866.581 381.27 868.06 381.135 869.519 380.869C869.444 381.75 869.396 382.641 869.396 383.541C869.396 399.93 882.227 413.219 898.057 413.219C903.906 413.226 909.612 411.384 914.378 407.95C918.214 411.348 923.138 413.22 928.234 413.219C940.058 413.219 949.647 403.291 949.647 391.045C949.647 390.514 949.607 389.995 949.569 389.472H949.647C962.311 389.472 972.577 378.84 972.577 365.729C972.599 361.386 971.447 357.12 969.246 353.392C967.044 349.665 963.877 346.618 960.088 344.583Z" fill="#00897B"/>
<path d="M914.872 310.712H908.215V478.374H914.872V310.712Z" fill="url(#paint35_linear)"/>
<path d="M913.456 313.068H910.107V478.374H913.456V313.068Z" fill="#795548"/>
<path d="M937.282 331.735L909.803 361.78L912.26 364.084L939.739 334.038L937.282 331.735Z" fill="#795548"/>
<path d="M883.538 365.981L881.541 368.703L910.032 390.127L912.029 387.405L883.538 365.981Z" fill="#795548"/>
<path d="M921.804 363.373C917.309 358.53 914.802 352.136 914.794 345.49C914.794 335.916 919.935 327.523 927.658 322.793C925.92 320.225 924.99 317.186 924.99 314.073C924.99 305.308 932.252 298.203 941.214 298.203C948.596 298.203 954.814 303.028 956.78 309.628C958.992 306.105 962.052 303.208 965.673 301.21C969.293 299.211 973.356 298.177 977.48 298.203C990.834 298.203 1001.64 308.793 1001.64 321.856C1001.64 324.646 1001.14 327.412 1000.15 330.018C1000.64 329.981 1001.13 329.947 1001.64 329.947C1012.36 329.947 1021.05 338.445 1021.05 348.929C1021.04 349.569 1021.01 350.209 1020.95 350.845C1029.52 354.458 1035.52 362.794 1035.52 372.503C1035.52 385.524 1024.74 396.077 1011.42 396.077C1010.02 396.069 1008.63 395.944 1007.25 395.701C1007.32 396.487 1007.36 397.277 1007.36 398.083C1007.36 412.692 995.258 424.535 980.323 424.535C974.849 424.546 969.496 422.905 964.946 419.824C961.26 422.884 956.637 424.55 951.87 424.535C940.719 424.535 931.669 415.688 931.669 404.774C931.669 404.3 931.706 403.837 931.739 403.37H931.669C919.723 403.37 910.036 393.894 910.036 382.209C910.036 373.997 914.828 366.881 921.804 363.373Z" fill="url(#paint36_linear)"/>
<path d="M924.001 363.287C919.705 358.647 917.313 352.527 917.31 346.167C917.31 337.003 922.232 328.972 929.625 324.445C927.952 321.985 927.057 319.069 927.056 316.083C927.056 307.694 934.01 300.89 942.585 300.89C949.647 300.89 955.595 305.508 957.486 311.826C959.603 308.459 962.53 305.69 965.991 303.779C969.453 301.869 973.336 300.878 977.279 300.901C990.061 300.901 1000.42 311.036 1000.42 323.538C1000.42 326.209 999.943 328.858 999.004 331.354C999.473 331.32 999.941 331.283 1000.42 331.283C1010.68 331.283 1019 339.419 1019 349.452C1019.01 350.065 1018.97 350.676 1018.91 351.285C1027.12 354.744 1032.86 362.722 1032.86 372.014C1032.86 384.474 1022.54 394.594 1009.79 394.594C1008.46 394.586 1007.12 394.466 1005.81 394.233C1005.87 394.985 1005.91 395.738 1005.91 396.513C1005.91 410.498 994.325 421.833 980.033 421.833C974.786 421.845 969.656 420.272 965.296 417.317C961.769 420.248 957.344 421.845 952.781 421.833C942.102 421.833 933.453 413.366 933.453 402.919C933.453 402.467 933.49 402.023 933.524 401.575H933.453C922.016 401.575 912.746 392.505 912.746 381.321C912.728 373.455 917.31 366.643 924.001 363.287Z" fill="#009688"/>
<path d="M971.536 336.804H963.965V477.524H971.536V336.804Z" fill="url(#paint37_linear)"/>
<path d="M969.968 336.804H965.782V477.524H969.968V336.804Z" fill="#795548"/>
<path d="M944.973 351.835L941.985 354.801L966.802 380.434L969.791 377.468L944.973 351.835Z" fill="#795548"/>
<path d="M992.824 380.96L967.096 399.24L969.501 402.709L995.228 384.429L992.824 380.96Z" fill="#795548"/>
<path d="M1137.46 361.491H950.796C946.533 361.491 943.08 363.433 943.08 365.834V504.582H1145.19V365.834C1145.19 363.433 1141.73 361.491 1137.46 361.491Z" fill="url(#paint38_linear)"/>
<path d="M1043.54 282.099L946.161 355.335V499.291H1141.5V360.558L1043.54 282.099Z" fill="white"/>
<path d="M1043.73 370.113C1055.71 370.113 1065.42 360.283 1065.42 348.158C1065.42 336.032 1055.71 326.202 1043.73 326.202C1031.76 326.202 1022.05 336.032 1022.05 348.158C1022.05 360.283 1031.76 370.113 1043.73 370.113Z" fill="url(#paint39_linear)"/>
<path d="M1003.08 390.499H964.746V429.311H1003.08V390.499Z" fill="url(#paint40_linear)"/>
<path d="M1121.95 390.499H1083.62V429.311H1121.95V390.499Z" fill="url(#paint41_linear)"/>
<path d="M927.379 391.862L922.187 362.455L1043.97 267.689L1164.52 364.348L1161.17 390.733L1043.95 301.172L927.379 391.862Z" fill="url(#paint42_linear)"/>
<path d="M927.617 385.957L924.045 365.639L1043.94 270.915L1162.66 365.646L1159.06 385.946L1043.92 294.067L927.617 385.957Z" fill="#6C63FF"/>
<path d="M1066.97 434.407H1020.12V499.291H1066.97V434.407Z" fill="url(#paint43_linear)"/>
<path d="M1065.61 435.78H1021.47V499.291H1065.61V435.78Z" fill="#6C63FF"/>
<path d="M1002.11 391.869H966.489V404.612H1002.11V391.869Z" fill="#6C63FF"/>
<path opacity="0.2" d="M1002.11 404.612H966.489V427.937H1002.11V404.612Z" fill="#6C63FF"/>
<path d="M1120.6 391.869H1084.97V404.612H1120.6V391.869Z" fill="#6C63FF"/>
<path opacity="0.2" d="M1120.6 404.612H1084.97V427.937H1120.6V404.612Z" fill="#6C63FF"/>
<path d="M1043.54 367.957C1046.13 367.957 1048.7 367.439 1051.1 366.433C1053.5 365.427 1055.68 363.952 1057.51 362.094C1059.34 360.235 1060.8 358.029 1061.79 355.601C1062.78 353.173 1063.29 350.57 1063.29 347.943H1023.79C1023.79 350.57 1024.3 353.173 1025.29 355.601C1026.28 358.029 1027.74 360.235 1029.57 362.094C1031.4 363.952 1033.58 365.427 1035.98 366.433C1038.38 367.439 1040.95 367.957 1043.54 367.957V367.957Z" fill="#6C63FF"/>
<path opacity="0.2" d="M1043.54 367.761C1048.78 367.761 1053.8 365.655 1057.5 361.905C1061.21 358.155 1063.29 353.069 1063.29 347.766H1023.79C1023.79 353.069 1025.87 358.155 1029.58 361.905C1033.28 365.655 1038.3 367.761 1043.54 367.761V367.761Z" fill="black"/>
<path opacity="0.2" d="M1043.54 327.967C1038.31 327.967 1033.29 330.071 1029.58 333.817C1025.88 337.563 1023.8 342.643 1023.79 347.943H1063.29C1063.28 342.643 1061.2 337.563 1057.5 333.817C1053.79 330.071 1048.77 327.967 1043.54 327.967V327.967Z" fill="#6C63FF"/>
<path opacity="0.2" d="M1043.54 327.967C1038.31 327.967 1033.29 330.071 1029.58 333.817C1025.88 337.563 1023.8 342.643 1023.79 347.943H1063.29C1063.28 342.643 1061.2 337.563 1057.5 333.817C1053.79 330.071 1048.77 327.967 1043.54 327.967V327.967Z" fill="#6C63FF"/>
<path d="M1055.35 472.044C1057.91 472.044 1059.99 469.938 1059.99 467.34C1059.99 464.742 1057.91 462.636 1055.35 462.636C1052.78 462.636 1050.7 464.742 1050.7 467.34C1050.7 469.938 1052.78 472.044 1055.35 472.044Z" fill="url(#paint44_linear)"/>
<path d="M1055.35 470.87C1057.27 470.87 1058.83 469.289 1058.83 467.34C1058.83 465.39 1057.27 463.81 1055.35 463.81C1053.42 463.81 1051.86 465.39 1051.86 467.34C1051.86 469.289 1053.42 470.87 1055.35 470.87Z" fill="#263238"/>
<path d="M1071.22 490.078H1014.31V508.895H1071.22V490.078Z" fill="url(#paint45_linear)"/>
<path d="M1070.06 491.644H1015.47V507.717H1070.06V491.644Z" fill="#EEEEEE"/>
<path d="M961.029 446.683C962.419 445.072 963.452 443.177 964.057 441.127C964.662 439.077 964.826 436.92 964.537 434.8C964.248 432.681 963.513 430.649 962.382 428.842C961.251 427.035 959.75 425.494 957.981 424.325C958.896 422.891 959.381 421.219 959.378 419.511C959.43 417.427 958.726 415.396 957.399 413.802C956.072 412.208 954.214 411.161 952.177 410.859C950.14 410.558 948.064 411.022 946.342 412.165C944.619 413.308 943.37 415.05 942.831 417.061C941.732 415.152 940.159 413.566 938.268 412.462C936.377 411.357 934.234 410.772 932.052 410.765C925.101 410.765 919.466 416.598 919.466 423.798C919.462 425.337 919.722 426.865 920.236 428.314C919.979 428.295 919.726 428.272 919.466 428.272C913.891 428.272 909.364 432.954 909.364 438.731C909.364 439.088 909.364 439.438 909.416 439.788C907.145 440.819 905.219 442.496 903.873 444.615C902.526 446.733 901.816 449.203 901.829 451.722C901.829 458.895 907.446 464.709 914.374 464.709C915.102 464.708 915.828 464.641 916.545 464.51C916.507 464.943 916.485 465.379 916.485 465.823C916.485 473.873 922.804 480.399 930.561 480.399C933.434 480.399 936.236 479.492 938.575 477.802C940.457 479.474 942.876 480.397 945.38 480.399C951.186 480.399 955.895 475.506 955.895 469.511C955.895 469.252 955.877 468.996 955.858 468.74H955.895C962.114 468.74 967.154 463.52 967.154 457.073C967.166 454.94 966.602 452.845 965.523 451.013C964.443 449.182 962.889 447.684 961.029 446.683V446.683Z" fill="url(#paint46_linear)"/>
<path d="M959.401 446.615C960.706 445.103 961.676 443.324 962.244 441.4C962.812 439.475 962.966 437.45 962.695 435.46C962.423 433.471 961.733 431.563 960.671 429.867C959.609 428.17 958.2 426.724 956.539 425.627C957.397 424.281 957.853 422.713 957.851 421.111C957.899 419.154 957.239 417.247 955.993 415.751C954.748 414.254 953.004 413.271 951.091 412.988C949.179 412.705 947.23 413.141 945.613 414.214C943.997 415.287 942.824 416.922 942.318 418.811C941.287 417.021 939.812 415.534 938.04 414.498C936.267 413.461 934.258 412.911 932.212 412.903C925.688 412.903 920.399 418.378 920.399 425.134C920.398 426.573 920.643 428.002 921.124 429.356C920.886 429.356 920.645 429.318 920.399 429.318C915.162 429.318 910.917 433.714 910.917 439.137C910.917 439.472 910.917 439.803 910.966 440.127C908.835 441.094 907.027 442.668 905.763 444.656C904.499 446.645 903.832 448.962 903.844 451.327C903.844 458.059 909.115 463.52 915.619 463.52C916.302 463.519 916.984 463.458 917.656 463.336C917.623 463.742 917.6 464.152 917.6 464.566C917.6 472.123 923.514 478.246 930.81 478.246C933.508 478.247 936.138 477.394 938.333 475.807C940.101 477.378 942.371 478.244 944.723 478.246C950.175 478.246 954.591 473.67 954.591 468.025C954.591 467.78 954.572 467.539 954.554 467.298H954.591C960.427 467.298 965.162 462.406 965.162 456.355C965.17 454.353 964.638 452.388 963.622 450.671C962.607 448.955 961.147 447.552 959.401 446.615V446.615Z" fill="#00897B"/>
<path d="M938.56 431.005H935.49V508.289H938.56V431.005Z" fill="url(#paint47_linear)"/>
<path d="M937.906 432.089H936.363V508.289H937.906V432.089Z" fill="#795548"/>
<path d="M948.894 440.679L936.226 454.53L937.358 455.591L950.025 441.74L948.894 440.679Z" fill="#795548"/>
<path d="M924.115 456.486L923.195 457.74L936.328 467.615L937.247 466.361L924.115 456.486Z" fill="#795548"/>
<path d="M941.76 455.278C939.687 453.046 938.531 450.097 938.53 447.033C938.544 444.917 939.099 442.841 940.141 441.008C941.183 439.174 942.677 437.645 944.477 436.571C943.672 435.386 943.24 433.982 943.24 432.544C943.24 428.502 946.585 425.228 950.718 425.228C952.314 425.209 953.875 425.712 955.167 426.66C956.46 427.609 957.416 428.954 957.895 430.497C958.915 428.872 960.325 427.536 961.994 426.615C963.663 425.693 965.536 425.216 967.437 425.228C973.592 425.228 978.587 430.12 978.587 436.142C978.588 437.428 978.356 438.703 977.903 439.905C978.13 439.905 978.357 439.871 978.587 439.871C983.527 439.871 987.534 443.789 987.534 448.621C987.534 448.916 987.519 449.212 987.489 449.505C989.459 450.31 991.148 451.688 992.344 453.466C993.539 455.243 994.187 457.339 994.206 459.49C994.206 465.492 989.232 470.358 983.096 470.358C982.452 470.357 981.809 470.302 981.174 470.193C981.208 470.569 981.226 470.919 981.226 471.291C981.226 478.024 975.651 483.485 968.76 483.485C966.233 483.492 963.761 482.736 961.66 481.313C959.958 482.719 957.825 483.482 955.628 483.47C950.484 483.47 946.317 479.39 946.317 474.359C946.317 474.14 946.317 473.926 946.351 473.711H946.317C940.809 473.711 936.345 469.342 936.345 463.957C936.358 462.143 936.872 460.368 937.829 458.835C938.786 457.301 940.148 456.069 941.76 455.278Z" fill="url(#paint48_linear)"/>
<path d="M942.767 455.237C940.781 453.097 939.675 450.271 939.675 447.334C939.686 445.311 940.215 443.325 941.21 441.57C942.204 439.815 943.631 438.35 945.351 437.32C944.579 436.186 944.166 434.842 944.165 433.466C944.165 429.597 947.369 426.462 951.324 426.462C952.851 426.447 954.342 426.928 955.579 427.835C956.815 428.742 957.732 430.027 958.193 431.501C959.169 429.947 960.519 428.67 962.116 427.788C963.714 426.907 965.506 426.451 967.325 426.462C973.216 426.462 977.993 431.133 977.993 436.898C977.993 438.129 977.771 439.35 977.338 440.5C977.554 440.5 977.769 440.466 977.993 440.466C982.72 440.466 986.541 444.229 986.541 448.843C986.541 449.126 986.526 449.409 986.497 449.69C988.382 450.46 989.999 451.779 991.144 453.479C992.289 455.18 992.909 457.187 992.927 459.245C992.927 464.988 988.166 469.647 982.293 469.647C981.67 469.647 981.048 469.594 980.435 469.489C980.468 469.835 980.487 470.185 980.487 470.539C980.487 476.986 975.145 482.205 968.555 482.205C966.137 482.212 963.771 481.489 961.761 480.128C960.134 481.477 958.095 482.212 955.992 482.205C951.071 482.205 947.072 478.303 947.072 473.486C947.072 473.279 947.072 473.072 947.105 472.868H947.072C941.801 472.868 937.527 468.687 937.527 463.531C937.546 461.791 938.048 460.091 938.974 458.625C939.901 457.158 941.215 455.985 942.767 455.237V455.237Z" fill="#009688"/>
<path d="M964.679 443.028H961.188V507.894H964.679V443.028Z" fill="url(#paint49_linear)"/>
<path d="M963.957 443.028H962.028V507.894H963.957V443.028Z" fill="#795548"/>
<path d="M952.435 449.96L951.058 451.327L962.499 463.144L963.876 461.776L952.435 449.96Z" fill="#795548"/>
<path d="M974.495 463.38L962.636 471.806L963.744 473.405L975.603 464.978L974.495 463.38Z" fill="#795548"/>
<path d="M868.363 419.357L893.474 445.783L921.886 419.357" stroke="#37474F" stroke-miterlimit="10"/>
<path d="M860.434 405.974H843.586V511.349H860.434V405.974Z" fill="url(#paint50_linear)"/>
<path d="M859.111 407.98H844.905V507.668H859.111V407.98Z" fill="#F5F5F5"/>
<path d="M940.389 410.325H839.289V428.724H940.389V410.325Z" fill="url(#paint51_linear)"/>
<path d="M840.612 412.331V426.714H939.069V412.331H840.612Z" fill="#F5F5F5"/>
<path d="M852.176 422.368C853.818 422.368 855.149 421.02 855.149 419.357C855.149 417.694 853.818 416.346 852.176 416.346C850.533 416.346 849.202 417.694 849.202 419.357C849.202 421.02 850.533 422.368 852.176 422.368Z" fill="url(#paint52_linear)"/>
<path d="M931.799 422.368C933.441 422.368 934.772 421.02 934.772 419.357C934.772 417.694 933.441 416.346 931.799 416.346C930.157 416.346 928.825 417.694 928.825 419.357C928.825 421.02 930.157 422.368 931.799 422.368Z" fill="url(#paint53_linear)"/>
<path d="M852.175 421.698C853.452 421.698 854.487 420.65 854.487 419.357C854.487 418.064 853.452 417.016 852.175 417.016C850.899 417.016 849.863 418.064 849.863 419.357C849.863 420.65 850.899 421.698 852.175 421.698Z" fill="#E6E6E6"/>
<path d="M931.799 421.698C933.076 421.698 934.111 420.65 934.111 419.357C934.111 418.064 933.076 417.016 931.799 417.016C930.522 417.016 929.487 418.064 929.487 419.357C929.487 420.65 930.522 421.698 931.799 421.698Z" fill="#E6E6E6"/>
<path d="M927.175 444.109H863.408V487.929H927.175V444.109Z" fill="url(#paint54_linear)"/>
<path d="M926.677 444.613H863.902V486.763H926.677V444.613Z" fill="#6C63FF"/>
<path d="M915.445 451.301H871.173V455.316H915.445V451.301Z" fill="white"/>
<path d="M910.653 459.162H879.268V463.178H910.653V459.162Z" fill="white"/>
<path d="M913.296 467.024H875.302V471.039H913.296V467.024Z" fill="white"/>
<path d="M915.939 474.885H871.667V478.901H915.939V474.885Z" fill="white"/>
<path d="M1108.67 458.763C1107.4 457.298 1106.47 455.576 1105.92 453.713C1105.37 451.85 1105.22 449.889 1105.48 447.963C1105.74 446.036 1106.41 444.189 1107.44 442.547C1108.47 440.904 1109.83 439.504 1111.44 438.441C1110.61 437.137 1110.17 435.617 1110.17 434.064C1110.12 432.168 1110.76 430.318 1111.96 428.867C1113.17 427.415 1114.86 426.462 1116.72 426.187C1118.57 425.912 1120.46 426.336 1122.03 427.377C1123.59 428.418 1124.73 430.005 1125.22 431.836C1126.21 430.1 1127.64 428.659 1129.36 427.655C1131.08 426.651 1133.03 426.119 1135.01 426.112C1141.33 426.112 1146.45 431.419 1146.45 437.959C1146.46 439.354 1146.22 440.738 1145.75 442.05C1145.99 442.05 1146.22 442.012 1146.45 442.012C1151.53 442.012 1155.64 446.269 1155.64 451.522C1155.64 451.846 1155.64 452.166 1155.59 452.482C1157.65 453.419 1159.41 454.944 1160.63 456.87C1161.85 458.796 1162.5 461.041 1162.49 463.332C1162.49 469.854 1157.38 475.141 1151.08 475.141C1150.42 475.14 1149.76 475.08 1149.11 474.961C1149.14 475.337 1149.17 475.751 1149.17 476.154C1149.17 483.473 1143.44 489.405 1136.37 489.405C1133.76 489.406 1131.21 488.581 1129.08 487.045C1127.37 488.566 1125.17 489.404 1122.89 489.405C1117.61 489.405 1113.33 484.971 1113.33 479.503C1113.33 479.266 1113.33 479.033 1113.36 478.799H1113.33C1107.68 478.799 1103.09 474.054 1103.09 468.198C1103.08 466.26 1103.6 464.357 1104.58 462.694C1105.56 461.031 1106.98 459.672 1108.67 458.763V458.763Z" fill="url(#paint55_linear)"/>
<path d="M1110.15 458.703C1108.96 457.328 1108.08 455.712 1107.56 453.962C1107.05 452.213 1106.91 450.371 1107.15 448.563C1107.4 446.754 1108.03 445.02 1108.99 443.477C1109.96 441.935 1111.24 440.621 1112.75 439.623C1111.97 438.4 1111.55 436.974 1111.56 435.517C1111.51 433.737 1112.11 432.003 1113.24 430.641C1114.38 429.279 1115.96 428.385 1117.7 428.127C1119.44 427.869 1121.21 428.266 1122.68 429.242C1124.15 430.218 1125.22 431.706 1125.68 433.425C1126.62 431.795 1127.96 430.442 1129.57 429.499C1131.18 428.557 1133.01 428.057 1134.88 428.051C1140.82 428.051 1145.61 433.029 1145.61 439.171C1145.61 440.48 1145.39 441.778 1144.96 443.01C1145.17 443.01 1145.39 442.976 1145.61 442.976C1150.37 442.976 1154.23 446.973 1154.23 451.903C1154.23 452.208 1154.23 452.509 1154.19 452.802C1156.13 453.682 1157.77 455.113 1158.92 456.921C1160.07 458.728 1160.67 460.836 1160.66 462.986C1160.66 469.109 1155.87 474.069 1149.96 474.069C1149.34 474.068 1148.71 474.012 1148.1 473.9C1148.13 474.276 1148.15 474.652 1148.15 475.029C1148.15 481.897 1142.77 487.467 1136.14 487.467C1133.69 487.467 1131.3 486.692 1129.3 485.25C1127.69 486.677 1125.63 487.464 1123.49 487.467C1118.54 487.467 1114.52 483.308 1114.52 478.175C1114.52 477.953 1114.52 477.735 1114.56 477.516H1114.52C1109.21 477.516 1104.91 473.06 1104.91 467.566C1104.9 465.746 1105.39 463.958 1106.31 462.396C1107.23 460.833 1108.56 459.557 1110.15 458.703Z" fill="#00897B"/>
<path d="M1131.88 444.508H1129.09V514.773H1131.88V444.508Z" fill="url(#paint56_linear)"/>
<path d="M1131.09 445.494H1129.69V514.773H1131.09V445.494Z" fill="#795548"/>
<path d="M1119.7 453.348L1118.67 454.315L1130.19 466.906L1131.22 465.94L1119.7 453.348Z" fill="#795548"/>
<path d="M1142.23 467.662L1130.29 476.641L1131.12 477.784L1143.07 468.804L1142.23 467.662Z" fill="#795548"/>
<path d="M1126.18 466.576C1128.07 464.546 1129.12 461.865 1129.12 459.079C1129.11 457.155 1128.61 455.267 1127.66 453.597C1126.72 451.928 1125.36 450.535 1123.73 449.554C1124.46 448.476 1124.85 447.199 1124.84 445.893C1124.84 442.219 1121.8 439.239 1118.05 439.239C1116.59 439.224 1115.18 439.681 1114 440.543C1112.83 441.405 1111.96 442.626 1111.52 444.026C1110.59 442.549 1109.31 441.336 1107.79 440.498C1106.28 439.661 1104.57 439.228 1102.85 439.239C1097.25 439.239 1092.71 443.676 1092.71 449.152C1092.71 450.321 1092.92 451.48 1093.34 452.573C1093.13 452.573 1092.92 452.542 1092.71 452.542C1088.22 452.542 1084.58 456.103 1084.58 460.498C1084.58 460.766 1084.6 461.033 1084.62 461.3C1082.83 462.031 1081.3 463.284 1080.21 464.9C1079.12 466.516 1078.53 468.422 1078.52 470.377C1078.52 475.834 1083.04 480.256 1088.61 480.256C1089.2 480.255 1089.78 480.205 1090.36 480.105C1090.33 480.433 1090.31 480.768 1090.31 481.103C1090.31 487.226 1095.39 492.189 1101.65 492.189C1103.94 492.195 1106.19 491.507 1108.1 490.214C1109.65 491.508 1111.59 492.215 1113.6 492.212C1118.27 492.212 1122.06 488.505 1122.06 483.933C1122.06 483.733 1122.06 483.556 1122.03 483.346H1122.06C1127.07 483.346 1131.13 479.375 1131.13 474.475C1131.12 472.822 1130.65 471.205 1129.77 469.809C1128.9 468.412 1127.65 467.292 1126.18 466.576V466.576Z" fill="url(#paint57_linear)"/>
<path d="M1125.27 466.542C1127.08 464.601 1128.09 462.034 1128.09 459.365C1128.08 457.526 1127.6 455.721 1126.7 454.126C1125.79 452.53 1124.5 451.199 1122.93 450.262C1123.63 449.231 1124.01 448.01 1124.01 446.758C1124.01 443.243 1121.1 440.39 1117.5 440.39C1116.11 440.376 1114.76 440.814 1113.63 441.639C1112.51 442.464 1111.68 443.634 1111.26 444.974C1110.37 443.561 1109.14 442.399 1107.69 441.597C1106.24 440.795 1104.61 440.38 1102.95 440.39C1097.6 440.39 1093.26 444.639 1093.26 449.878C1093.26 450.997 1093.46 452.107 1093.85 453.152C1093.66 453.152 1093.46 453.122 1093.26 453.122C1088.96 453.122 1085.47 456.532 1085.47 460.735C1085.48 460.987 1085.49 461.238 1085.52 461.488C1083.8 462.188 1082.33 463.387 1081.29 464.933C1080.25 466.479 1079.69 468.303 1079.67 470.174C1079.67 475.397 1083.99 479.631 1089.33 479.631C1089.89 479.631 1090.45 479.583 1091 479.488C1090.98 479.804 1090.96 480.121 1090.96 480.444C1090.96 486.304 1095.82 491.057 1101.81 491.057C1104 491.065 1106.16 490.41 1107.98 489.175C1109.46 490.4 1111.32 491.065 1113.23 491.057C1117.69 491.057 1121.33 487.508 1121.33 483.131C1121.33 482.943 1121.33 482.755 1121.3 482.57H1121.33C1126.12 482.57 1130.01 478.769 1130.01 474.08C1129.99 472.501 1129.54 470.958 1128.7 469.625C1127.86 468.293 1126.67 467.225 1125.27 466.542Z" fill="#009688"/>
<path d="M1108.52 455.444H1105.35V514.42H1108.52V455.444Z" fill="url(#paint58_linear)"/>
<path d="M1107.76 455.444H1106V514.42H1107.76V455.444Z" fill="#795548"/>
<path d="M1116.48 461.745L1106.08 472.486L1107.33 473.73L1117.73 462.988L1116.48 461.745Z" fill="#795548"/>
<path d="M1096.42 473.957L1095.42 475.411L1106.2 483.072L1107.21 481.618L1096.42 473.957Z" fill="#795548"/>
</g>
<defs>
<linearGradient id="paint0_linear" x1="146199" y1="63802.8" x2="146199" y2="18868.3" gradientUnits="userSpaceOnUse">
<stop stop-color="#808080" stop-opacity="0.25"/>
<stop offset="0.54" stop-color="#808080" stop-opacity="0.12"/>
<stop offset="1" stop-color="#808080" stop-opacity="0.1"/>
</linearGradient>
<linearGradient id="paint1_linear" x1="11498.5" y1="1748.9" x2="11498.5" y2="368.141" gradientUnits="userSpaceOnUse">
<stop stop-color="#808080" stop-opacity="0.25"/>
<stop offset="0.54" stop-color="#808080" stop-opacity="0.12"/>
<stop offset="1" stop-color="#808080" stop-opacity="0.1"/>
</linearGradient>
<linearGradient id="paint2_linear" x1="48762.7" y1="5731.82" x2="48762.7" y2="3771.14" gradientUnits="userSpaceOnUse">
<stop stop-color="#808080" stop-opacity="0.25"/>
<stop offset="0.54" stop-color="#808080" stop-opacity="0.12"/>
<stop offset="1" stop-color="#808080" stop-opacity="0.1"/>
</linearGradient>
<linearGradient id="paint3_linear" x1="62135.5" y1="5841.14" x2="62135.5" y2="3834.95" gradientUnits="userSpaceOnUse">
<stop stop-color="#808080" stop-opacity="0.25"/>
<stop offset="0.54" stop-color="#808080" stop-opacity="0.12"/>
<stop offset="1" stop-color="#808080" stop-opacity="0.1"/>
</linearGradient>
<linearGradient id="paint4_linear" x1="76075.6" y1="3581.17" x2="76075.6" y2="187.5" gradientUnits="userSpaceOnUse">
<stop stop-color="#808080" stop-opacity="0.25"/>
<stop offset="0.54" stop-color="#808080" stop-opacity="0.12"/>
<stop offset="1" stop-color="#808080" stop-opacity="0.1"/>
</linearGradient>
<linearGradient id="paint5_linear" x1="65343.7" y1="74365.7" x2="65343.7" y2="12551.2" gradientUnits="userSpaceOnUse">
<stop stop-color="#808080" stop-opacity="0.25"/>
<stop offset="0.54" stop-color="#808080" stop-opacity="0.12"/>
<stop offset="1" stop-color="#808080" stop-opacity="0.1"/>
</linearGradient>
<linearGradient id="paint6_linear" x1="9625.3" y1="41448.8" x2="9625.3" y2="24864.9" gradientUnits="userSpaceOnUse">
<stop stop-color="#808080" stop-opacity="0.25"/>
<stop offset="0.54" stop-color="#808080" stop-opacity="0.12"/>
<stop offset="1" stop-color="#808080" stop-opacity="0.1"/>
</linearGradient>
<linearGradient id="paint7_linear" x1="1245.85" y1="6900.71" x2="1245.85" y2="5665.47" gradientUnits="userSpaceOnUse">
<stop stop-color="#808080" stop-opacity="0.25"/>
<stop offset="0.54" stop-color="#808080" stop-opacity="0.12"/>
<stop offset="1" stop-color="#808080" stop-opacity="0.1"/>
</linearGradient>
<linearGradient id="paint8_linear" x1="7238.65" y1="42634" x2="7238.65" y2="24914" gradientUnits="userSpaceOnUse">
<stop stop-color="#808080" stop-opacity="0.25"/>
<stop offset="0.54" stop-color="#808080" stop-opacity="0.12"/>
<stop offset="1" stop-color="#808080" stop-opacity="0.1"/>
</linearGradient>
<linearGradient id="paint9_linear" x1="8459.87" y1="11152.6" x2="8459.87" y2="8115.69" gradientUnits="userSpaceOnUse">
<stop stop-color="#808080" stop-opacity="0.25"/>
<stop offset="0.54" stop-color="#808080" stop-opacity="0.12"/>
<stop offset="1" stop-color="#808080" stop-opacity="0.1"/>
</linearGradient>
<linearGradient id="paint10_linear" x1="10186.4" y1="41448.7" x2="10186.4" y2="24864.9" gradientUnits="userSpaceOnUse">
<stop stop-color="#808080" stop-opacity="0.25"/>
<stop offset="0.54" stop-color="#808080" stop-opacity="0.12"/>
<stop offset="1" stop-color="#808080" stop-opacity="0.1"/>
</linearGradient>
<linearGradient id="paint11_linear" x1="1806.97" y1="6900.71" x2="1806.97" y2="5665.47" gradientUnits="userSpaceOnUse">
<stop stop-color="#808080" stop-opacity="0.25"/>
<stop offset="0.54" stop-color="#808080" stop-opacity="0.12"/>
<stop offset="1" stop-color="#808080" stop-opacity="0.1"/>
</linearGradient>
<linearGradient id="paint12_linear" x1="7799.78" y1="42634" x2="7799.78" y2="24914" gradientUnits="userSpaceOnUse">
<stop stop-color="#808080" stop-opacity="0.25"/>
<stop offset="0.54" stop-color="#808080" stop-opacity="0.12"/>
<stop offset="1" stop-color="#808080" stop-opacity="0.1"/>
</linearGradient>
<linearGradient id="paint13_linear" x1="9020.99" y1="11152.6" x2="9020.99" y2="8115.69" gradientUnits="userSpaceOnUse">
<stop stop-color="#808080" stop-opacity="0.25"/>
<stop offset="0.54" stop-color="#808080" stop-opacity="0.12"/>
<stop offset="1" stop-color="#808080" stop-opacity="0.1"/>
</linearGradient>
<linearGradient id="paint14_linear" x1="145219" y1="63800.6" x2="145219" y2="18866.2" gradientUnits="userSpaceOnUse">
<stop stop-color="#808080" stop-opacity="0.25"/>
<stop offset="0.54" stop-color="#808080" stop-opacity="0.12"/>
<stop offset="1" stop-color="#808080" stop-opacity="0.1"/>
</linearGradient>
<linearGradient id="paint15_linear" x1="10518.7" y1="1746.75" x2="10518.7" y2="365.986" gradientUnits="userSpaceOnUse">
<stop stop-color="#808080" stop-opacity="0.25"/>
<stop offset="0.54" stop-color="#808080" stop-opacity="0.12"/>
<stop offset="1" stop-color="#808080" stop-opacity="0.1"/>
</linearGradient>
<linearGradient id="paint16_linear" x1="47783" y1="5729.67" x2="47783" y2="3768.99" gradientUnits="userSpaceOnUse">
<stop stop-color="#808080" stop-opacity="0.25"/>
<stop offset="0.54" stop-color="#808080" stop-opacity="0.12"/>
<stop offset="1" stop-color="#808080" stop-opacity="0.1"/>
</linearGradient>
<linearGradient id="paint17_linear" x1="61155.7" y1="5838.98" x2="61155.7" y2="3832.8" gradientUnits="userSpaceOnUse">
<stop stop-color="#808080" stop-opacity="0.25"/>
<stop offset="0.54" stop-color="#808080" stop-opacity="0.12"/>
<stop offset="1" stop-color="#808080" stop-opacity="0.1"/>
</linearGradient>
<linearGradient id="paint18_linear" x1="75095.7" y1="3579.02" x2="75095.7" y2="185.345" gradientUnits="userSpaceOnUse">
<stop stop-color="#808080" stop-opacity="0.25"/>
<stop offset="0.54" stop-color="#808080" stop-opacity="0.12"/>
<stop offset="1" stop-color="#808080" stop-opacity="0.1"/>
</linearGradient>
<linearGradient id="paint19_linear" x1="64363.9" y1="74363.6" x2="64363.9" y2="12549.1" gradientUnits="userSpaceOnUse">
<stop stop-color="#808080" stop-opacity="0.25"/>
<stop offset="0.54" stop-color="#808080" stop-opacity="0.12"/>
<stop offset="1" stop-color="#808080" stop-opacity="0.1"/>
</linearGradient>
<linearGradient id="paint20_linear" x1="1745.65" y1="502.22" x2="1745.65" y2="341.497" gradientUnits="userSpaceOnUse">
<stop stop-color="#808080" stop-opacity="0.25"/>
<stop offset="0.54" stop-color="#808080" stop-opacity="0.12"/>
<stop offset="1" stop-color="#808080" stop-opacity="0.1"/>
</linearGradient>
<linearGradient id="paint21_linear" x1="6607.44" y1="5775.09" x2="6607.44" y2="3871.53" gradientUnits="userSpaceOnUse">
<stop stop-color="#808080" stop-opacity="0.25"/>
<stop offset="0.54" stop-color="#808080" stop-opacity="0.12"/>
<stop offset="1" stop-color="#808080" stop-opacity="0.1"/>
</linearGradient>
<linearGradient id="paint22_linear" x1="21654.9" y1="10018.5" x2="21654.9" y2="7314.96" gradientUnits="userSpaceOnUse">
<stop stop-color="#808080" stop-opacity="0.25"/>
<stop offset="0.54" stop-color="#808080" stop-opacity="0.12"/>
<stop offset="1" stop-color="#808080" stop-opacity="0.1"/>
</linearGradient>
<linearGradient id="paint23_linear" x1="38558.4" y1="10128.9" x2="38558.4" y2="7362.95" gradientUnits="userSpaceOnUse">
<stop stop-color="#808080" stop-opacity="0.25"/>
<stop offset="0.54" stop-color="#808080" stop-opacity="0.12"/>
<stop offset="1" stop-color="#808080" stop-opacity="0.1"/>
</linearGradient>
<linearGradient id="paint24_linear" x1="41011.8" y1="9681.15" x2="41011.8" y2="5001.37" gradientUnits="userSpaceOnUse">
<stop stop-color="#808080" stop-opacity="0.25"/>
<stop offset="0.54" stop-color="#808080" stop-opacity="0.12"/>
<stop offset="1" stop-color="#808080" stop-opacity="0.1"/>
</linearGradient>
<linearGradient id="paint25_linear" x1="35266" y1="47823.4" x2="35266" y2="20514.8" gradientUnits="userSpaceOnUse">
<stop stop-color="#808080" stop-opacity="0.25"/>
<stop offset="0.54" stop-color="#808080" stop-opacity="0.12"/>
<stop offset="1" stop-color="#808080" stop-opacity="0.1"/>
</linearGradient>
<linearGradient id="paint26_linear" x1="255.768" y1="504.375" x2="255.768" y2="343.652" gradientUnits="userSpaceOnUse">
<stop stop-color="#808080" stop-opacity="0.25"/>
<stop offset="0.54" stop-color="#808080" stop-opacity="0.12"/>
<stop offset="1" stop-color="#808080" stop-opacity="0.1"/>
</linearGradient>
<linearGradient id="paint27_linear" x1="5117.44" y1="5777.24" x2="5117.44" y2="3873.69" gradientUnits="userSpaceOnUse">
<stop stop-color="#808080" stop-opacity="0.25"/>
<stop offset="0.54" stop-color="#808080" stop-opacity="0.12"/>
<stop offset="1" stop-color="#808080" stop-opacity="0.1"/>
</linearGradient>
<linearGradient id="paint28_linear" x1="20165" y1="10020.7" x2="20165" y2="7317.12" gradientUnits="userSpaceOnUse">
<stop stop-color="#808080" stop-opacity="0.25"/>
<stop offset="0.54" stop-color="#808080" stop-opacity="0.12"/>
<stop offset="1" stop-color="#808080" stop-opacity="0.1"/>
</linearGradient>
<linearGradient id="paint29_linear" x1="37068.2" y1="10131" x2="37068.2" y2="7365.11" gradientUnits="userSpaceOnUse">
<stop stop-color="#808080" stop-opacity="0.25"/>
<stop offset="0.54" stop-color="#808080" stop-opacity="0.12"/>
<stop offset="1" stop-color="#808080" stop-opacity="0.1"/>
</linearGradient>
<linearGradient id="paint30_linear" x1="39521.8" y1="9683.3" x2="39521.8" y2="5003.52" gradientUnits="userSpaceOnUse">
<stop stop-color="#808080" stop-opacity="0.25"/>
<stop offset="0.54" stop-color="#808080" stop-opacity="0.12"/>
<stop offset="1" stop-color="#808080" stop-opacity="0.1"/>
</linearGradient>
<linearGradient id="paint31_linear" x1="33776.1" y1="47825.6" x2="33776.1" y2="20517" gradientUnits="userSpaceOnUse">
<stop stop-color="#808080" stop-opacity="0.25"/>
<stop offset="0.54" stop-color="#808080" stop-opacity="0.12"/>
<stop offset="1" stop-color="#808080" stop-opacity="0.1"/>
</linearGradient>
<linearGradient id="paint32_linear" x1="1098.73" y1="319.169" x2="1120.66" y2="319.169" gradientUnits="userSpaceOnUse">
<stop stop-color="#808080" stop-opacity="0.25"/>
<stop offset="0.54" stop-color="#808080" stop-opacity="0.12"/>
<stop offset="1" stop-color="#808080" stop-opacity="0.1"/>
</linearGradient>
<linearGradient id="paint33_linear" x1="34481" y1="4783.45" x2="34481" y2="229.773" gradientUnits="userSpaceOnUse">
<stop stop-color="#808080" stop-opacity="0.25"/>
<stop offset="0.54" stop-color="#808080" stop-opacity="0.12"/>
<stop offset="1" stop-color="#808080" stop-opacity="0.1"/>
</linearGradient>
<linearGradient id="paint34_linear" x1="50100.9" y1="84801.6" x2="50100.9" y2="24192.6" gradientUnits="userSpaceOnUse">
<stop stop-color="#808080" stop-opacity="0.25"/>
<stop offset="0.54" stop-color="#808080" stop-opacity="0.12"/>
<stop offset="1" stop-color="#808080" stop-opacity="0.1"/>
</linearGradient>
<linearGradient id="paint35_linear" x1="2275.57" y1="111065" x2="2275.57" y2="36369.8" gradientUnits="userSpaceOnUse">
<stop stop-color="#808080" stop-opacity="0.25"/>
<stop offset="0.54" stop-color="#808080" stop-opacity="0.12"/>
<stop offset="1" stop-color="#808080" stop-opacity="0.1"/>
</linearGradient>
<linearGradient id="paint36_linear" x1="67060.7" y1="73259.4" x2="67060.7" y2="30843" gradientUnits="userSpaceOnUse">
<stop stop-color="#808080" stop-opacity="0.25"/>
<stop offset="0.54" stop-color="#808080" stop-opacity="0.12"/>
<stop offset="1" stop-color="#808080" stop-opacity="0.1"/>
</linearGradient>
<linearGradient id="paint37_linear" x1="3663.96" y1="92977" x2="3663.96" y2="40357.6" gradientUnits="userSpaceOnUse">
<stop stop-color="#808080" stop-opacity="0.25"/>
<stop offset="0.54" stop-color="#808080" stop-opacity="0.12"/>
<stop offset="1" stop-color="#808080" stop-opacity="0.1"/>
</linearGradient>
<linearGradient id="paint38_linear" x1="146276" y1="113435" x2="146276" y2="59028.7" gradientUnits="userSpaceOnUse">
<stop stop-color="#808080" stop-opacity="0.25"/>
<stop offset="0.54" stop-color="#808080" stop-opacity="0.12"/>
<stop offset="1" stop-color="#808080" stop-opacity="0.1"/>
</linearGradient>
<linearGradient id="paint39_linear" x1="25353.7" y1="16701.1" x2="25353.7" y2="11577.5" gradientUnits="userSpaceOnUse">
<stop stop-color="#808080" stop-opacity="0.25"/>
<stop offset="0.54" stop-color="#808080" stop-opacity="0.12"/>
<stop offset="1" stop-color="#808080" stop-opacity="0.1"/>
</linearGradient>
<linearGradient id="paint40_linear" x1="16301.2" y1="20968.8" x2="16301.2" y2="16966.2" gradientUnits="userSpaceOnUse">
<stop stop-color="#808080" stop-opacity="0.25"/>
<stop offset="0.54" stop-color="#808080" stop-opacity="0.12"/>
<stop offset="1" stop-color="#808080" stop-opacity="0.1"/>
</linearGradient>
<linearGradient id="paint41_linear" x1="28679.1" y1="20968.8" x2="28679.1" y2="16966.2" gradientUnits="userSpaceOnUse">
<stop stop-color="#808080" stop-opacity="0.25"/>
<stop offset="0.54" stop-color="#808080" stop-opacity="0.12"/>
<stop offset="1" stop-color="#808080" stop-opacity="0.1"/>
</linearGradient>
<linearGradient id="paint42_linear" x1="136630" y1="53748.7" x2="136630" y2="12778.1" gradientUnits="userSpaceOnUse">
<stop stop-color="#808080" stop-opacity="0.25"/>
<stop offset="0.54" stop-color="#808080" stop-opacity="0.12"/>
<stop offset="1" stop-color="#808080" stop-opacity="0.1"/>
</linearGradient>
<linearGradient id="paint43_linear" x1="27281.4" y1="46901.9" x2="27281.4" y2="35715.2" gradientUnits="userSpaceOnUse">
<stop stop-color="#808080" stop-opacity="0.25"/>
<stop offset="0.54" stop-color="#808080" stop-opacity="0.12"/>
<stop offset="1" stop-color="#808080" stop-opacity="0.1"/>
</linearGradient>
<linearGradient id="paint44_linear" x1="6554.55" y1="6519.46" x2="6554.55" y2="6284.24" gradientUnits="userSpaceOnUse">
<stop stop-color="#808080" stop-opacity="0.25"/>
<stop offset="0.54" stop-color="#808080" stop-opacity="0.12"/>
<stop offset="1" stop-color="#808080" stop-opacity="0.1"/>
</linearGradient>
<linearGradient id="paint45_linear" x1="32799" y1="14446.1" x2="32799" y2="13505.3" gradientUnits="userSpaceOnUse">
<stop stop-color="#808080" stop-opacity="0.25"/>
<stop offset="0.54" stop-color="#808080" stop-opacity="0.12"/>
<stop offset="1" stop-color="#808080" stop-opacity="0.1"/>
</linearGradient>
<linearGradient id="paint46_linear" x1="28609.4" y1="50959.2" x2="28609.4" y2="38077.7" gradientUnits="userSpaceOnUse">
<stop stop-color="#808080" stop-opacity="0.25"/>
<stop offset="0.54" stop-color="#808080" stop-opacity="0.12"/>
<stop offset="1" stop-color="#808080" stop-opacity="0.1"/>
</linearGradient>
<linearGradient id="paint47_linear" x1="1776.57" y1="57627" x2="1776.57" y2="41755.8" gradientUnits="userSpaceOnUse">
<stop stop-color="#808080" stop-opacity="0.25"/>
<stop offset="0.54" stop-color="#808080" stop-opacity="0.12"/>
<stop offset="1" stop-color="#808080" stop-opacity="0.1"/>
</linearGradient>
<linearGradient id="paint48_linear" x1="30266.7" y1="43193.2" x2="30266.7" y2="34177.2" gradientUnits="userSpaceOnUse">
<stop stop-color="#808080" stop-opacity="0.25"/>
<stop offset="0.54" stop-color="#808080" stop-opacity="0.12"/>
<stop offset="1" stop-color="#808080" stop-opacity="0.1"/>
</linearGradient>
<linearGradient id="paint49_linear" x1="2160.59" y1="48380.6" x2="2160.59" y2="37199.7" gradientUnits="userSpaceOnUse">
<stop stop-color="#808080" stop-opacity="0.25"/>
<stop offset="0.54" stop-color="#808080" stop-opacity="0.12"/>
<stop offset="1" stop-color="#808080" stop-opacity="0.1"/>
</linearGradient>
<linearGradient id="paint50_linear" x1="1605.47" y1="79247.1" x2="1605.47" y2="49742.3" gradientUnits="userSpaceOnUse">
<stop stop-color="#808080" stop-opacity="0.25"/>
<stop offset="0.54" stop-color="#808080" stop-opacity="0.12"/>
<stop offset="1" stop-color="#808080" stop-opacity="0.1"/>
</linearGradient>
<linearGradient id="paint51_linear" x1="15701" y1="10136.8" x2="15701" y2="9237.47" gradientUnits="userSpaceOnUse">
<stop stop-color="#808080" stop-opacity="0.25"/>
<stop offset="0.54" stop-color="#808080" stop-opacity="0.12"/>
<stop offset="1" stop-color="#808080" stop-opacity="0.1"/>
</linearGradient>
<linearGradient id="paint52_linear" x1="1120.81" y1="3497.85" x2="1120.81" y2="3401.51" gradientUnits="userSpaceOnUse">
<stop stop-color="#808080" stop-opacity="0.25"/>
<stop offset="0.54" stop-color="#808080" stop-opacity="0.12"/>
<stop offset="1" stop-color="#808080" stop-opacity="0.1"/>
</linearGradient>
<linearGradient id="paint53_linear" x1="2474.38" y1="3497.85" x2="2474.38" y2="3401.51" gradientUnits="userSpaceOnUse">
<stop stop-color="#808080" stop-opacity="0.25"/>
<stop offset="0.54" stop-color="#808080" stop-opacity="0.12"/>
<stop offset="1" stop-color="#808080" stop-opacity="0.1"/>
</linearGradient>
<linearGradient id="paint54_linear" x1="5702.7" y1="27952.9" x2="16642" y2="27952.9" gradientUnits="userSpaceOnUse">
<stop stop-color="#808080" stop-opacity="0.25"/>
<stop offset="0.54" stop-color="#808080" stop-opacity="0.12"/>
<stop offset="1" stop-color="#808080" stop-opacity="0.1"/>
</linearGradient>
<linearGradient id="paint55_linear" x1="-28732.3" y1="47893.5" x2="-28732.3" y2="37247.2" gradientUnits="userSpaceOnUse">
<stop stop-color="#808080" stop-opacity="0.25"/>
<stop offset="0.54" stop-color="#808080" stop-opacity="0.12"/>
<stop offset="1" stop-color="#808080" stop-opacity="0.1"/>
</linearGradient>
<linearGradient id="paint56_linear" x1="-389.224" y1="57850.2" x2="-389.224" y2="44730.9" gradientUnits="userSpaceOnUse">
<stop stop-color="#808080" stop-opacity="0.25"/>
<stop offset="0.54" stop-color="#808080" stop-opacity="0.12"/>
<stop offset="1" stop-color="#808080" stop-opacity="0.1"/>
</linearGradient>
<linearGradient id="paint57_linear" x1="-29271.5" y1="40558.7" x2="-29271.5" y2="33104.8" gradientUnits="userSpaceOnUse">
<stop stop-color="#808080" stop-opacity="0.25"/>
<stop offset="0.54" stop-color="#808080" stop-opacity="0.12"/>
<stop offset="1" stop-color="#808080" stop-opacity="0.1"/>
</linearGradient>
<linearGradient id="paint58_linear" x1="-760.671" y1="48578.3" x2="-760.671" y2="39336.3" gradientUnits="userSpaceOnUse">
<stop stop-color="#808080" stop-opacity="0.25"/>
<stop offset="0.54" stop-color="#808080" stop-opacity="0.12"/>
<stop offset="1" stop-color="#808080" stop-opacity="0.1"/>
</linearGradient>
<clipPath id="clip0">
<rect width="2000" height="500" fill="white"/>
</clipPath>
</defs>
</svg>
